<?xml version="1.0" encoding="UTF-8"?>
<svg xmlns="http://www.w3.org/2000/svg" xmlns:xlink="http://www.w3.org/1999/xlink" width="194.04" height="119.925834" viewBox="0 0 194.04 119.925834">
<defs>
<g>
<g id="glyph-0-0">
<path d="M 0.25 -2.28125 C 0.25 -2.800781 0.328125 -3.25 0.484375 -3.625 C 0.648438 -4.007812 0.863281 -4.296875 1.125 -4.484375 C 1.320312 -4.628906 1.53125 -4.703125 1.75 -4.703125 C 2.101562 -4.703125 2.421875 -4.523438 2.703125 -4.171875 C 3.054688 -3.722656 3.234375 -3.113281 3.234375 -2.34375 C 3.234375 -1.8125 3.15625 -1.359375 3 -0.984375 C 2.84375 -0.609375 2.644531 -0.335938 2.40625 -0.171875 C 2.175781 -0.00390625 1.945312 0.078125 1.71875 0.078125 C 1.28125 0.078125 0.914062 -0.179688 0.625 -0.703125 C 0.375 -1.140625 0.25 -1.664062 0.25 -2.28125 Z M 0.921875 -2.1875 C 0.921875 -1.550781 1 -1.035156 1.15625 -0.640625 C 1.28125 -0.296875 1.472656 -0.125 1.734375 -0.125 C 1.859375 -0.125 1.984375 -0.179688 2.109375 -0.296875 C 2.242188 -0.410156 2.34375 -0.59375 2.40625 -0.84375 C 2.507812 -1.238281 2.5625 -1.789062 2.5625 -2.5 C 2.5625 -3.03125 2.507812 -3.46875 2.40625 -3.8125 C 2.320312 -4.070312 2.21875 -4.257812 2.09375 -4.375 C 2 -4.445312 1.882812 -4.484375 1.75 -4.484375 C 1.59375 -4.484375 1.457031 -4.414062 1.34375 -4.28125 C 1.175781 -4.09375 1.0625 -3.796875 1 -3.390625 C 0.945312 -2.984375 0.921875 -2.582031 0.921875 -2.1875 Z M 0.921875 -2.1875 "/>
</g>
<g id="glyph-0-1">
<path d="M 3.1875 -0.890625 L 2.875 0 L 0.15625 0 L 0.15625 -0.125 C 0.945312 -0.851562 1.503906 -1.445312 1.828125 -1.90625 C 2.160156 -2.375 2.328125 -2.800781 2.328125 -3.1875 C 2.328125 -3.476562 2.238281 -3.71875 2.0625 -3.90625 C 1.882812 -4.09375 1.671875 -4.1875 1.421875 -4.1875 C 1.191406 -4.1875 0.984375 -4.117188 0.796875 -3.984375 C 0.617188 -3.859375 0.488281 -3.664062 0.40625 -3.40625 L 0.28125 -3.40625 C 0.34375 -3.820312 0.488281 -4.140625 0.71875 -4.359375 C 0.957031 -4.585938 1.25 -4.703125 1.59375 -4.703125 C 1.96875 -4.703125 2.28125 -4.582031 2.53125 -4.34375 C 2.78125 -4.101562 2.90625 -3.820312 2.90625 -3.5 C 2.90625 -3.257812 2.851562 -3.023438 2.75 -2.796875 C 2.582031 -2.429688 2.3125 -2.039062 1.9375 -1.625 C 1.363281 -1.007812 1.007812 -0.640625 0.875 -0.515625 L 2.078125 -0.515625 C 2.328125 -0.515625 2.5 -0.519531 2.59375 -0.53125 C 2.695312 -0.550781 2.785156 -0.585938 2.859375 -0.640625 C 2.941406 -0.703125 3.007812 -0.785156 3.0625 -0.890625 Z M 3.1875 -0.890625 "/>
</g>
<g id="glyph-0-2">
<path d="M 3.25 -1.703125 L 3.25 -1.21875 L 2.625 -1.21875 L 2.625 0 L 2.0625 0 L 2.0625 -1.21875 L 0.109375 -1.21875 L 0.109375 -1.65625 L 2.25 -4.703125 L 2.625 -4.703125 L 2.625 -1.703125 Z M 2.0625 -1.703125 L 2.0625 -3.984375 L 0.4375 -1.703125 Z M 2.0625 -1.703125 "/>
</g>
<g id="glyph-0-3">
<path d="M 3.125 -4.703125 L 3.125 -4.578125 C 2.820312 -4.554688 2.578125 -4.5 2.390625 -4.40625 C 2.203125 -4.3125 2.015625 -4.171875 1.828125 -3.984375 C 1.640625 -3.804688 1.484375 -3.601562 1.359375 -3.375 C 1.242188 -3.15625 1.144531 -2.890625 1.0625 -2.578125 C 1.394531 -2.796875 1.722656 -2.90625 2.046875 -2.90625 C 2.359375 -2.90625 2.628906 -2.78125 2.859375 -2.53125 C 3.097656 -2.28125 3.21875 -1.953125 3.21875 -1.546875 C 3.21875 -1.160156 3.097656 -0.8125 2.859375 -0.5 C 2.578125 -0.113281 2.207031 0.078125 1.75 0.078125 C 1.4375 0.078125 1.171875 -0.0234375 0.953125 -0.234375 C 0.515625 -0.640625 0.296875 -1.164062 0.296875 -1.8125 C 0.296875 -2.21875 0.378906 -2.609375 0.546875 -2.984375 C 0.710938 -3.359375 0.945312 -3.6875 1.25 -3.96875 C 1.5625 -4.257812 1.859375 -4.453125 2.140625 -4.546875 C 2.421875 -4.648438 2.679688 -4.703125 2.921875 -4.703125 Z M 1 -2.328125 C 0.96875 -2.023438 0.953125 -1.773438 0.953125 -1.578125 C 0.953125 -1.367188 0.988281 -1.132812 1.0625 -0.875 C 1.144531 -0.625 1.265625 -0.421875 1.421875 -0.265625 C 1.535156 -0.160156 1.675781 -0.109375 1.84375 -0.109375 C 2.039062 -0.109375 2.21875 -0.203125 2.375 -0.390625 C 2.53125 -0.578125 2.609375 -0.84375 2.609375 -1.1875 C 2.609375 -1.570312 2.53125 -1.90625 2.375 -2.1875 C 2.21875 -2.46875 2 -2.609375 1.71875 -2.609375 C 1.632812 -2.609375 1.539062 -2.585938 1.4375 -2.546875 C 1.34375 -2.515625 1.195312 -2.441406 1 -2.328125 Z M 1 -2.328125 "/>
</g>
<g id="glyph-0-4">
<path d="M 1.34375 -2.328125 C 0.976562 -2.617188 0.738281 -2.851562 0.625 -3.03125 C 0.519531 -3.21875 0.46875 -3.410156 0.46875 -3.609375 C 0.46875 -3.910156 0.582031 -4.164062 0.8125 -4.375 C 1.050781 -4.59375 1.363281 -4.703125 1.75 -4.703125 C 2.113281 -4.703125 2.410156 -4.601562 2.640625 -4.40625 C 2.867188 -4.207031 2.984375 -3.976562 2.984375 -3.71875 C 2.984375 -3.539062 2.921875 -3.363281 2.796875 -3.1875 C 2.671875 -3.007812 2.414062 -2.800781 2.03125 -2.5625 C 2.425781 -2.25 2.691406 -2.003906 2.828125 -1.828125 C 2.992188 -1.597656 3.078125 -1.351562 3.078125 -1.09375 C 3.078125 -0.769531 2.953125 -0.492188 2.703125 -0.265625 C 2.460938 -0.0351562 2.140625 0.078125 1.734375 0.078125 C 1.296875 0.078125 0.957031 -0.0546875 0.71875 -0.328125 C 0.519531 -0.546875 0.421875 -0.785156 0.421875 -1.046875 C 0.421875 -1.253906 0.488281 -1.457031 0.625 -1.65625 C 0.757812 -1.851562 1 -2.078125 1.34375 -2.328125 Z M 1.875 -2.6875 C 2.144531 -2.9375 2.316406 -3.128906 2.390625 -3.265625 C 2.460938 -3.410156 2.5 -3.570312 2.5 -3.75 C 2.5 -3.988281 2.429688 -4.175781 2.296875 -4.3125 C 2.160156 -4.445312 1.976562 -4.515625 1.75 -4.515625 C 1.519531 -4.515625 1.332031 -4.445312 1.1875 -4.3125 C 1.039062 -4.175781 0.96875 -4.019531 0.96875 -3.84375 C 0.96875 -3.726562 0.992188 -3.609375 1.046875 -3.484375 C 1.109375 -3.367188 1.195312 -3.257812 1.3125 -3.15625 Z M 1.5 -2.1875 C 1.3125 -2.03125 1.171875 -1.859375 1.078125 -1.671875 C 0.984375 -1.484375 0.9375 -1.28125 0.9375 -1.0625 C 0.9375 -0.769531 1.015625 -0.535156 1.171875 -0.359375 C 1.335938 -0.191406 1.546875 -0.109375 1.796875 -0.109375 C 2.035156 -0.109375 2.226562 -0.175781 2.375 -0.3125 C 2.53125 -0.445312 2.609375 -0.613281 2.609375 -0.8125 C 2.609375 -0.976562 2.5625 -1.125 2.46875 -1.25 C 2.3125 -1.488281 1.988281 -1.800781 1.5 -2.1875 Z M 1.5 -2.1875 "/>
</g>
<g id="glyph-0-5">
<path d="M 0.8125 -4.15625 L 1.9375 -4.703125 L 2.046875 -4.703125 L 2.046875 -0.8125 C 2.046875 -0.550781 2.054688 -0.390625 2.078125 -0.328125 C 2.097656 -0.265625 2.144531 -0.210938 2.21875 -0.171875 C 2.289062 -0.140625 2.429688 -0.125 2.640625 -0.125 L 2.640625 0 L 0.890625 0 L 0.890625 -0.125 C 1.109375 -0.125 1.25 -0.140625 1.3125 -0.171875 C 1.382812 -0.210938 1.429688 -0.257812 1.453125 -0.3125 C 1.472656 -0.363281 1.484375 -0.53125 1.484375 -0.8125 L 1.484375 -3.296875 C 1.484375 -3.640625 1.472656 -3.859375 1.453125 -3.953125 C 1.441406 -4.023438 1.414062 -4.078125 1.375 -4.109375 C 1.332031 -4.140625 1.28125 -4.15625 1.21875 -4.15625 C 1.132812 -4.15625 1.019531 -4.125 0.875 -4.0625 Z M 0.8125 -4.15625 "/>
</g>
<g id="glyph-0-6">
<path d="M 0.875 -0.65625 C 0.976562 -0.65625 1.066406 -0.617188 1.140625 -0.546875 C 1.210938 -0.472656 1.25 -0.382812 1.25 -0.28125 C 1.25 -0.175781 1.210938 -0.0859375 1.140625 -0.015625 C 1.066406 0.0546875 0.976562 0.09375 0.875 0.09375 C 0.769531 0.09375 0.679688 0.0546875 0.609375 -0.015625 C 0.535156 -0.0859375 0.5 -0.175781 0.5 -0.28125 C 0.5 -0.382812 0.535156 -0.472656 0.609375 -0.546875 C 0.679688 -0.617188 0.769531 -0.65625 0.875 -0.65625 Z M 0.875 -0.65625 "/>
</g>
<g id="glyph-1-0">
<path d="M 5.390625 -6.0625 L 5.53125 -4.046875 L 5.390625 -4.046875 C 5.210938 -4.648438 4.953125 -5.082031 4.609375 -5.34375 C 4.273438 -5.613281 3.875 -5.75 3.40625 -5.75 C 3.007812 -5.75 2.648438 -5.648438 2.328125 -5.453125 C 2.015625 -5.253906 1.765625 -4.9375 1.578125 -4.5 C 1.398438 -4.0625 1.3125 -3.515625 1.3125 -2.859375 C 1.3125 -2.328125 1.398438 -1.863281 1.578125 -1.46875 C 1.753906 -1.070312 2.015625 -0.769531 2.359375 -0.5625 C 2.703125 -0.351562 3.09375 -0.25 3.53125 -0.25 C 3.914062 -0.25 4.253906 -0.332031 4.546875 -0.5 C 4.847656 -0.664062 5.175781 -0.992188 5.53125 -1.484375 L 5.65625 -1.390625 C 5.363281 -0.859375 5.019531 -0.46875 4.625 -0.21875 C 4.226562 0.0195312 3.753906 0.140625 3.203125 0.140625 C 2.222656 0.140625 1.460938 -0.222656 0.921875 -0.953125 C 0.523438 -1.492188 0.328125 -2.132812 0.328125 -2.875 C 0.328125 -3.46875 0.457031 -4.007812 0.71875 -4.5 C 0.988281 -5 1.351562 -5.382812 1.8125 -5.65625 C 2.28125 -5.925781 2.789062 -6.0625 3.34375 -6.0625 C 3.769531 -6.0625 4.191406 -5.957031 4.609375 -5.75 C 4.734375 -5.6875 4.820312 -5.65625 4.875 -5.65625 C 4.945312 -5.65625 5.015625 -5.679688 5.078125 -5.734375 C 5.148438 -5.816406 5.203125 -5.925781 5.234375 -6.0625 Z M 5.390625 -6.0625 "/>
</g>
<g id="glyph-1-1">
<path d="M 1.453125 -6.21875 L 1.453125 -3.28125 C 1.773438 -3.644531 2.03125 -3.875 2.21875 -3.96875 C 2.414062 -4.070312 2.609375 -4.125 2.796875 -4.125 C 3.023438 -4.125 3.21875 -4.0625 3.375 -3.9375 C 3.539062 -3.8125 3.660156 -3.613281 3.734375 -3.34375 C 3.796875 -3.15625 3.828125 -2.816406 3.828125 -2.328125 L 3.828125 -0.90625 C 3.828125 -0.65625 3.847656 -0.484375 3.890625 -0.390625 C 3.921875 -0.316406 3.96875 -0.257812 4.03125 -0.21875 C 4.101562 -0.175781 4.234375 -0.15625 4.421875 -0.15625 L 4.421875 0 L 2.453125 0 L 2.453125 -0.15625 L 2.546875 -0.15625 C 2.734375 -0.15625 2.863281 -0.179688 2.9375 -0.234375 C 3.007812 -0.296875 3.0625 -0.382812 3.09375 -0.5 C 3.09375 -0.539062 3.09375 -0.675781 3.09375 -0.90625 L 3.09375 -2.328125 C 3.09375 -2.765625 3.070312 -3.050781 3.03125 -3.1875 C 2.988281 -3.320312 2.914062 -3.421875 2.8125 -3.484375 C 2.71875 -3.554688 2.597656 -3.59375 2.453125 -3.59375 C 2.316406 -3.59375 2.171875 -3.550781 2.015625 -3.46875 C 1.859375 -3.394531 1.671875 -3.242188 1.453125 -3.015625 L 1.453125 -0.90625 C 1.453125 -0.632812 1.46875 -0.460938 1.5 -0.390625 C 1.53125 -0.328125 1.585938 -0.269531 1.671875 -0.21875 C 1.753906 -0.175781 1.898438 -0.15625 2.109375 -0.15625 L 2.109375 0 L 0.125 0 L 0.125 -0.15625 C 0.300781 -0.15625 0.4375 -0.179688 0.53125 -0.234375 C 0.59375 -0.265625 0.640625 -0.320312 0.671875 -0.40625 C 0.710938 -0.488281 0.734375 -0.65625 0.734375 -0.90625 L 0.734375 -4.53125 C 0.734375 -4.988281 0.722656 -5.269531 0.703125 -5.375 C 0.679688 -5.476562 0.644531 -5.546875 0.59375 -5.578125 C 0.550781 -5.617188 0.492188 -5.640625 0.421875 -5.640625 C 0.359375 -5.640625 0.257812 -5.617188 0.125 -5.578125 L 0.0625 -5.734375 L 1.25 -6.21875 Z M 1.453125 -6.21875 "/>
</g>
<g id="glyph-1-2">
<path d="M 2.546875 -0.578125 C 2.140625 -0.253906 1.882812 -0.0703125 1.78125 -0.03125 C 1.613281 0.0390625 1.441406 0.078125 1.265625 0.078125 C 0.992188 0.078125 0.765625 -0.015625 0.578125 -0.203125 C 0.398438 -0.390625 0.3125 -0.640625 0.3125 -0.953125 C 0.3125 -1.140625 0.359375 -1.304688 0.453125 -1.453125 C 0.566406 -1.648438 0.769531 -1.835938 1.0625 -2.015625 C 1.363281 -2.191406 1.859375 -2.40625 2.546875 -2.65625 L 2.546875 -2.8125 C 2.546875 -3.207031 2.484375 -3.476562 2.359375 -3.625 C 2.234375 -3.78125 2.050781 -3.859375 1.8125 -3.859375 C 1.625 -3.859375 1.476562 -3.804688 1.375 -3.703125 C 1.257812 -3.609375 1.203125 -3.492188 1.203125 -3.359375 L 1.21875 -3.109375 C 1.21875 -2.972656 1.179688 -2.867188 1.109375 -2.796875 C 1.035156 -2.722656 0.945312 -2.6875 0.84375 -2.6875 C 0.726562 -2.6875 0.632812 -2.722656 0.5625 -2.796875 C 0.5 -2.878906 0.46875 -2.984375 0.46875 -3.109375 C 0.46875 -3.367188 0.59375 -3.601562 0.84375 -3.8125 C 1.101562 -4.019531 1.46875 -4.125 1.9375 -4.125 C 2.289062 -4.125 2.582031 -4.0625 2.8125 -3.9375 C 2.976562 -3.851562 3.101562 -3.710938 3.1875 -3.515625 C 3.238281 -3.390625 3.265625 -3.132812 3.265625 -2.75 L 3.265625 -1.390625 C 3.265625 -1.003906 3.269531 -0.769531 3.28125 -0.6875 C 3.300781 -0.601562 3.328125 -0.546875 3.359375 -0.515625 C 3.398438 -0.484375 3.441406 -0.46875 3.484375 -0.46875 C 3.523438 -0.46875 3.566406 -0.476562 3.609375 -0.5 C 3.660156 -0.539062 3.773438 -0.648438 3.953125 -0.828125 L 3.953125 -0.578125 C 3.628906 -0.140625 3.316406 0.078125 3.015625 0.078125 C 2.878906 0.078125 2.765625 0.0273438 2.671875 -0.0625 C 2.585938 -0.164062 2.546875 -0.335938 2.546875 -0.578125 Z M 2.546875 -0.859375 L 2.546875 -2.390625 C 2.109375 -2.210938 1.828125 -2.085938 1.703125 -2.015625 C 1.460938 -1.890625 1.289062 -1.753906 1.1875 -1.609375 C 1.09375 -1.472656 1.046875 -1.320312 1.046875 -1.15625 C 1.046875 -0.945312 1.109375 -0.769531 1.234375 -0.625 C 1.359375 -0.488281 1.503906 -0.421875 1.671875 -0.421875 C 1.890625 -0.421875 2.179688 -0.566406 2.546875 -0.859375 Z M 2.546875 -0.859375 "/>
</g>
<g id="glyph-1-3">
<path d="M 1.296875 -6.21875 C 1.421875 -6.21875 1.523438 -6.171875 1.609375 -6.078125 C 1.691406 -5.992188 1.734375 -5.894531 1.734375 -5.78125 C 1.734375 -5.65625 1.691406 -5.546875 1.609375 -5.453125 C 1.523438 -5.367188 1.421875 -5.328125 1.296875 -5.328125 C 1.171875 -5.328125 1.066406 -5.367188 0.984375 -5.453125 C 0.898438 -5.546875 0.859375 -5.65625 0.859375 -5.78125 C 0.859375 -5.894531 0.898438 -5.992188 0.984375 -6.078125 C 1.066406 -6.171875 1.171875 -6.21875 1.296875 -6.21875 Z M 1.65625 -4.125 L 1.65625 -0.90625 C 1.65625 -0.65625 1.671875 -0.488281 1.703125 -0.40625 C 1.742188 -0.320312 1.800781 -0.257812 1.875 -0.21875 C 1.945312 -0.175781 2.078125 -0.15625 2.265625 -0.15625 L 2.265625 0 L 0.328125 0 L 0.328125 -0.15625 C 0.515625 -0.15625 0.640625 -0.171875 0.703125 -0.203125 C 0.773438 -0.242188 0.832031 -0.304688 0.875 -0.390625 C 0.914062 -0.484375 0.9375 -0.65625 0.9375 -0.90625 L 0.9375 -2.453125 C 0.9375 -2.878906 0.921875 -3.160156 0.890625 -3.296875 C 0.867188 -3.390625 0.835938 -3.453125 0.796875 -3.484375 C 0.753906 -3.523438 0.695312 -3.546875 0.625 -3.546875 C 0.539062 -3.546875 0.441406 -3.519531 0.328125 -3.46875 L 0.265625 -3.640625 L 1.46875 -4.125 Z M 1.65625 -4.125 "/>
</g>
<g id="glyph-1-4">
<path d="M 1.453125 -3.28125 C 1.921875 -3.84375 2.367188 -4.125 2.796875 -4.125 C 3.003906 -4.125 3.1875 -4.066406 3.34375 -3.953125 C 3.507812 -3.847656 3.640625 -3.671875 3.734375 -3.421875 C 3.796875 -3.242188 3.828125 -2.972656 3.828125 -2.609375 L 3.828125 -0.90625 C 3.828125 -0.65625 3.847656 -0.484375 3.890625 -0.390625 C 3.921875 -0.316406 3.972656 -0.257812 4.046875 -0.21875 C 4.117188 -0.175781 4.25 -0.15625 4.4375 -0.15625 L 4.4375 0 L 2.453125 0 L 2.453125 -0.15625 L 2.546875 -0.15625 C 2.722656 -0.15625 2.847656 -0.179688 2.921875 -0.234375 C 3.003906 -0.296875 3.0625 -0.382812 3.09375 -0.5 C 3.101562 -0.539062 3.109375 -0.675781 3.109375 -0.90625 L 3.109375 -2.546875 C 3.109375 -2.910156 3.054688 -3.171875 2.953125 -3.328125 C 2.859375 -3.492188 2.703125 -3.578125 2.484375 -3.578125 C 2.140625 -3.578125 1.796875 -3.390625 1.453125 -3.015625 L 1.453125 -0.90625 C 1.453125 -0.632812 1.46875 -0.46875 1.5 -0.40625 C 1.539062 -0.320312 1.59375 -0.257812 1.65625 -0.21875 C 1.726562 -0.175781 1.875 -0.15625 2.09375 -0.15625 L 2.09375 0 L 0.125 0 L 0.125 -0.15625 L 0.203125 -0.15625 C 0.410156 -0.15625 0.546875 -0.207031 0.609375 -0.3125 C 0.679688 -0.414062 0.71875 -0.613281 0.71875 -0.90625 L 0.71875 -2.390625 C 0.71875 -2.867188 0.707031 -3.160156 0.6875 -3.265625 C 0.664062 -3.367188 0.632812 -3.441406 0.59375 -3.484375 C 0.550781 -3.523438 0.488281 -3.546875 0.40625 -3.546875 C 0.320312 -3.546875 0.226562 -3.519531 0.125 -3.46875 L 0.046875 -3.640625 L 1.265625 -4.125 L 1.453125 -4.125 Z M 1.453125 -3.28125 "/>
</g>
<g id="glyph-1-5">
</g>
<g id="glyph-1-6">
<path d="M 5.125 -1.640625 L 5.28125 -1.609375 L 4.765625 0 L 0.171875 0 L 0.171875 -0.15625 L 0.40625 -0.15625 C 0.65625 -0.15625 0.832031 -0.238281 0.9375 -0.40625 C 1 -0.5 1.03125 -0.710938 1.03125 -1.046875 L 1.03125 -4.875 C 1.03125 -5.25 0.988281 -5.484375 0.90625 -5.578125 C 0.789062 -5.703125 0.625 -5.765625 0.40625 -5.765625 L 0.171875 -5.765625 L 0.171875 -5.921875 L 2.859375 -5.921875 L 2.859375 -5.765625 C 2.546875 -5.765625 2.328125 -5.734375 2.203125 -5.671875 C 2.078125 -5.617188 1.988281 -5.546875 1.9375 -5.453125 C 1.894531 -5.359375 1.875 -5.132812 1.875 -4.78125 L 1.875 -1.046875 C 1.875 -0.804688 1.894531 -0.644531 1.9375 -0.5625 C 1.976562 -0.5 2.035156 -0.453125 2.109375 -0.421875 C 2.179688 -0.390625 2.40625 -0.375 2.78125 -0.375 L 3.21875 -0.375 C 3.675781 -0.375 3.992188 -0.40625 4.171875 -0.46875 C 4.359375 -0.539062 4.523438 -0.660156 4.671875 -0.828125 C 4.828125 -1.003906 4.976562 -1.273438 5.125 -1.640625 Z M 5.125 -1.640625 "/>
</g>
<g id="glyph-1-7">
<path d="M 0.953125 -2.5 C 0.953125 -1.90625 1.097656 -1.4375 1.390625 -1.09375 C 1.679688 -0.757812 2.019531 -0.59375 2.40625 -0.59375 C 2.675781 -0.59375 2.90625 -0.660156 3.09375 -0.796875 C 3.289062 -0.941406 3.453125 -1.191406 3.578125 -1.546875 L 3.71875 -1.453125 C 3.65625 -1.054688 3.476562 -0.691406 3.1875 -0.359375 C 2.894531 -0.0351562 2.523438 0.125 2.078125 0.125 C 1.597656 0.125 1.1875 -0.0625 0.84375 -0.4375 C 0.5 -0.8125 0.328125 -1.316406 0.328125 -1.953125 C 0.328125 -2.640625 0.503906 -3.171875 0.859375 -3.546875 C 1.210938 -3.929688 1.65625 -4.125 2.1875 -4.125 C 2.632812 -4.125 3 -3.972656 3.28125 -3.671875 C 3.570312 -3.378906 3.71875 -2.988281 3.71875 -2.5 Z M 0.953125 -2.75 L 2.8125 -2.75 C 2.789062 -3.007812 2.757812 -3.191406 2.71875 -3.296875 C 2.644531 -3.453125 2.535156 -3.578125 2.390625 -3.671875 C 2.242188 -3.765625 2.09375 -3.8125 1.9375 -3.8125 C 1.695312 -3.8125 1.476562 -3.71875 1.28125 -3.53125 C 1.09375 -3.34375 0.984375 -3.082031 0.953125 -2.75 Z M 0.953125 -2.75 "/>
</g>
<g id="glyph-1-8">
<path d="M 1.34375 -1.453125 C 1.101562 -1.578125 0.914062 -1.742188 0.78125 -1.953125 C 0.65625 -2.171875 0.59375 -2.410156 0.59375 -2.671875 C 0.59375 -3.066406 0.738281 -3.40625 1.03125 -3.6875 C 1.332031 -3.976562 1.71875 -4.125 2.1875 -4.125 C 2.570312 -4.125 2.898438 -4.03125 3.171875 -3.84375 L 4.03125 -3.84375 C 4.15625 -3.84375 4.226562 -3.835938 4.25 -3.828125 C 4.269531 -3.828125 4.28125 -3.816406 4.28125 -3.796875 C 4.300781 -3.765625 4.3125 -3.71875 4.3125 -3.65625 C 4.3125 -3.582031 4.304688 -3.53125 4.296875 -3.5 C 4.285156 -3.476562 4.269531 -3.460938 4.25 -3.453125 C 4.226562 -3.453125 4.15625 -3.453125 4.03125 -3.453125 L 3.5 -3.453125 C 3.664062 -3.242188 3.75 -2.972656 3.75 -2.640625 C 3.75 -2.265625 3.601562 -1.945312 3.3125 -1.6875 C 3.03125 -1.425781 2.648438 -1.296875 2.171875 -1.296875 C 1.972656 -1.296875 1.769531 -1.320312 1.5625 -1.375 C 1.4375 -1.269531 1.347656 -1.175781 1.296875 -1.09375 C 1.253906 -1.007812 1.234375 -0.9375 1.234375 -0.875 C 1.234375 -0.820312 1.253906 -0.769531 1.296875 -0.71875 C 1.347656 -0.675781 1.445312 -0.644531 1.59375 -0.625 C 1.675781 -0.613281 1.878906 -0.601562 2.203125 -0.59375 C 2.804688 -0.582031 3.195312 -0.5625 3.375 -0.53125 C 3.644531 -0.5 3.859375 -0.398438 4.015625 -0.234375 C 4.179688 -0.0664062 4.265625 0.132812 4.265625 0.375 C 4.265625 0.695312 4.109375 1.003906 3.796875 1.296875 C 3.335938 1.722656 2.742188 1.9375 2.015625 1.9375 C 1.453125 1.9375 0.976562 1.804688 0.59375 1.546875 C 0.375 1.398438 0.265625 1.25 0.265625 1.09375 C 0.265625 1.03125 0.28125 0.960938 0.3125 0.890625 C 0.363281 0.773438 0.46875 0.625 0.625 0.4375 C 0.644531 0.40625 0.789062 0.246094 1.0625 -0.03125 C 0.914062 -0.125 0.8125 -0.207031 0.75 -0.28125 C 0.6875 -0.351562 0.65625 -0.429688 0.65625 -0.515625 C 0.65625 -0.617188 0.695312 -0.738281 0.78125 -0.875 C 0.863281 -1.007812 1.050781 -1.203125 1.34375 -1.453125 Z M 2.109375 -3.90625 C 1.890625 -3.90625 1.707031 -3.816406 1.5625 -3.640625 C 1.414062 -3.472656 1.34375 -3.210938 1.34375 -2.859375 C 1.34375 -2.398438 1.441406 -2.046875 1.640625 -1.796875 C 1.796875 -1.597656 1.988281 -1.5 2.21875 -1.5 C 2.445312 -1.5 2.628906 -1.582031 2.765625 -1.75 C 2.910156 -1.914062 2.984375 -2.175781 2.984375 -2.53125 C 2.984375 -3 2.882812 -3.363281 2.6875 -3.625 C 2.539062 -3.8125 2.347656 -3.90625 2.109375 -3.90625 Z M 1.3125 0 C 1.175781 0.144531 1.070312 0.28125 1 0.40625 C 0.925781 0.539062 0.890625 0.660156 0.890625 0.765625 C 0.890625 0.910156 0.972656 1.035156 1.140625 1.140625 C 1.429688 1.316406 1.851562 1.40625 2.40625 1.40625 C 2.9375 1.40625 3.320312 1.3125 3.5625 1.125 C 3.8125 0.945312 3.9375 0.75 3.9375 0.53125 C 3.9375 0.382812 3.863281 0.28125 3.71875 0.21875 C 3.570312 0.15625 3.269531 0.113281 2.8125 0.09375 C 2.164062 0.0820312 1.664062 0.0507812 1.3125 0 Z M 1.3125 0 "/>
</g>
<g id="glyph-1-9">
<path d="M 1.4375 -5.3125 L 1.4375 -4 L 2.375 -4 L 2.375 -3.703125 L 1.4375 -3.703125 L 1.4375 -1.109375 C 1.4375 -0.847656 1.472656 -0.671875 1.546875 -0.578125 C 1.628906 -0.484375 1.726562 -0.4375 1.84375 -0.4375 C 1.9375 -0.4375 2.023438 -0.46875 2.109375 -0.53125 C 2.203125 -0.59375 2.273438 -0.679688 2.328125 -0.796875 L 2.5 -0.796875 C 2.394531 -0.515625 2.25 -0.300781 2.0625 -0.15625 C 1.875 -0.0078125 1.679688 0.0625 1.484375 0.0625 C 1.359375 0.0625 1.226562 0.0234375 1.09375 -0.046875 C 0.96875 -0.117188 0.875 -0.222656 0.8125 -0.359375 C 0.75 -0.503906 0.71875 -0.71875 0.71875 -1 L 0.71875 -3.703125 L 0.09375 -3.703125 L 0.09375 -3.84375 C 0.25 -3.90625 0.410156 -4.007812 0.578125 -4.15625 C 0.742188 -4.3125 0.894531 -4.5 1.03125 -4.71875 C 1.09375 -4.820312 1.1875 -5.019531 1.3125 -5.3125 Z M 1.4375 -5.3125 "/>
</g>
<g id="glyph-2-0">
<path d="M -0.15625 -2.765625 L 0 -2.765625 L 0 -0.21875 L -0.15625 -0.21875 L -0.15625 -0.4375 C -0.15625 -0.675781 -0.226562 -0.851562 -0.375 -0.96875 C -0.46875 -1.039062 -0.691406 -1.078125 -1.046875 -1.078125 L -4.875 -1.078125 C -5.175781 -1.078125 -5.375 -1.054688 -5.46875 -1.015625 C -5.539062 -0.984375 -5.601562 -0.921875 -5.65625 -0.828125 C -5.726562 -0.703125 -5.765625 -0.570312 -5.765625 -0.4375 L -5.765625 -0.21875 L -5.921875 -0.21875 L -5.921875 -2.765625 L -5.765625 -2.765625 L -5.765625 -2.546875 C -5.765625 -2.304688 -5.691406 -2.128906 -5.546875 -2.015625 C -5.453125 -1.941406 -5.226562 -1.90625 -4.875 -1.90625 L -1.046875 -1.90625 C -0.742188 -1.90625 -0.546875 -1.925781 -0.453125 -1.96875 C -0.378906 -2 -0.316406 -2.0625 -0.265625 -2.15625 C -0.191406 -2.28125 -0.15625 -2.410156 -0.15625 -2.546875 Z M -0.15625 -2.765625 "/>
</g>
<g id="glyph-2-1">
<path d="M 0.0625 -3.9375 C 0.570312 -4.238281 0.945312 -4.5625 1.1875 -4.90625 C 1.4375 -5.25 1.578125 -5.640625 1.609375 -6.078125 L 1.75 -6.078125 C 1.738281 -5.679688 1.660156 -5.253906 1.515625 -4.796875 C 1.367188 -4.335938 1.160156 -3.898438 0.890625 -3.484375 C 0.628906 -3.078125 0.351562 -2.726562 0.0625 -2.4375 C -0.101562 -2.019531 -0.28125 -1.6875 -0.46875 -1.4375 C -0.75 -1.082031 -1.097656 -0.804688 -1.515625 -0.609375 C -1.929688 -0.410156 -2.421875 -0.3125 -2.984375 -0.3125 C -3.867188 -0.3125 -4.601562 -0.597656 -5.1875 -1.171875 C -5.769531 -1.742188 -6.0625 -2.441406 -6.0625 -3.265625 C -6.0625 -4.035156 -5.765625 -4.703125 -5.171875 -5.265625 C -4.585938 -5.835938 -3.847656 -6.125 -2.953125 -6.125 C -2.234375 -6.125 -1.597656 -5.921875 -1.046875 -5.515625 C -0.503906 -5.109375 -0.132812 -4.582031 0.0625 -3.9375 Z M -5.734375 -3.203125 C -5.734375 -2.671875 -5.539062 -2.242188 -5.15625 -1.921875 C -4.6875 -1.515625 -3.960938 -1.3125 -2.984375 -1.3125 C -2.015625 -1.3125 -1.273438 -1.519531 -0.765625 -1.9375 C -0.359375 -2.257812 -0.15625 -2.679688 -0.15625 -3.203125 C -0.15625 -3.753906 -0.359375 -4.195312 -0.765625 -4.53125 C -1.234375 -4.925781 -1.925781 -5.125 -2.84375 -5.125 C -3.550781 -5.125 -4.148438 -5.015625 -4.640625 -4.796875 C -5.015625 -4.628906 -5.289062 -4.40625 -5.46875 -4.125 C -5.644531 -3.851562 -5.734375 -3.546875 -5.734375 -3.203125 Z M -5.734375 -3.203125 "/>
</g>
<g id="glyph-2-2">
<path d="M 0 -3.65625 L -4.984375 -1.375 L -1.03125 -1.375 C -0.664062 -1.375 -0.4375 -1.410156 -0.34375 -1.484375 C -0.21875 -1.597656 -0.15625 -1.769531 -0.15625 -2 L -0.15625 -2.21875 L 0 -2.21875 L 0 -0.15625 L -0.15625 -0.15625 L -0.15625 -0.359375 C -0.15625 -0.609375 -0.234375 -0.785156 -0.390625 -0.890625 C -0.484375 -0.953125 -0.695312 -0.984375 -1.03125 -0.984375 L -4.90625 -0.984375 C -5.164062 -0.984375 -5.351562 -0.957031 -5.46875 -0.90625 C -5.550781 -0.863281 -5.617188 -0.785156 -5.671875 -0.671875 C -5.734375 -0.566406 -5.765625 -0.394531 -5.765625 -0.15625 L -5.921875 -0.15625 L -5.921875 -1.828125 L -1.296875 -3.984375 L -5.921875 -6.09375 L -5.921875 -7.765625 L -5.765625 -7.765625 L -5.765625 -7.5625 C -5.765625 -7.3125 -5.6875 -7.132812 -5.53125 -7.03125 C -5.445312 -6.96875 -5.238281 -6.9375 -4.90625 -6.9375 L -1.03125 -6.9375 C -0.664062 -6.9375 -0.4375 -6.976562 -0.34375 -7.0625 C -0.21875 -7.164062 -0.15625 -7.332031 -0.15625 -7.5625 L -0.15625 -7.765625 L 0 -7.765625 L 0 -5.25 L -0.15625 -5.25 L -0.15625 -5.46875 C -0.15625 -5.71875 -0.234375 -5.894531 -0.390625 -6 C -0.484375 -6.0625 -0.695312 -6.09375 -1.03125 -6.09375 L -4.984375 -6.09375 L 0 -3.8125 Z M 0 -3.65625 "/>
</g>
<g id="glyph-2-3">
</g>
<g id="glyph-2-4">
<path d="M -5.609375 -1.875 L -3.265625 -1.875 L -3.265625 -3.171875 C -3.265625 -3.515625 -3.316406 -3.738281 -3.421875 -3.84375 C -3.546875 -4 -3.78125 -4.085938 -4.125 -4.109375 L -4.125 -4.265625 L -2.0625 -4.265625 L -2.0625 -4.109375 C -2.34375 -4.066406 -2.523438 -4.023438 -2.609375 -3.984375 C -2.710938 -3.929688 -2.789062 -3.84375 -2.84375 -3.71875 C -2.90625 -3.601562 -2.9375 -3.421875 -2.9375 -3.171875 L -2.9375 -1.875 L -0.984375 -1.875 C -0.722656 -1.875 -0.5625 -1.882812 -0.5 -1.90625 C -0.445312 -1.925781 -0.40625 -1.960938 -0.375 -2.015625 C -0.34375 -2.078125 -0.328125 -2.191406 -0.328125 -2.359375 L -0.328125 -3.359375 C -0.328125 -3.703125 -0.347656 -3.945312 -0.390625 -4.09375 C -0.441406 -4.25 -0.535156 -4.394531 -0.671875 -4.53125 C -0.847656 -4.707031 -1.117188 -4.894531 -1.484375 -5.09375 L -1.484375 -5.265625 L 0 -4.75 L 0 -0.1875 L -0.15625 -0.1875 L -0.15625 -0.390625 C -0.15625 -0.535156 -0.191406 -0.671875 -0.265625 -0.796875 C -0.304688 -0.890625 -0.375 -0.953125 -0.46875 -0.984375 C -0.5625 -1.015625 -0.753906 -1.03125 -1.046875 -1.03125 L -4.890625 -1.03125 C -5.265625 -1.03125 -5.5 -0.992188 -5.59375 -0.921875 C -5.707031 -0.816406 -5.765625 -0.640625 -5.765625 -0.390625 L -5.765625 -0.1875 L -5.921875 -0.1875 L -5.921875 -4.75 L -4.625 -4.8125 L -4.625 -4.640625 C -4.9375 -4.585938 -5.148438 -4.519531 -5.265625 -4.4375 C -5.390625 -4.363281 -5.476562 -4.253906 -5.53125 -4.109375 C -5.582031 -3.992188 -5.609375 -3.789062 -5.609375 -3.5 Z M -5.609375 -1.875 "/>
</g>
<g id="glyph-2-5">
<path d="M -3.609375 0.015625 L -4.109375 -1.21875 L -4.109375 -1.390625 L -3.171875 -1.390625 C -3.523438 -1.597656 -3.769531 -1.804688 -3.90625 -2.015625 C -4.050781 -2.222656 -4.125 -2.441406 -4.125 -2.671875 C -4.125 -3.078125 -3.96875 -3.410156 -3.65625 -3.671875 C -3.269531 -4.003906 -2.765625 -4.171875 -2.140625 -4.171875 C -1.453125 -4.171875 -0.882812 -3.972656 -0.4375 -3.578125 C -0.0625 -3.253906 0.125 -2.84375 0.125 -2.34375 C 0.125 -2.125 0.09375 -1.9375 0.03125 -1.78125 C -0.0078125 -1.664062 -0.0976562 -1.535156 -0.234375 -1.390625 L 0.984375 -1.390625 C 1.265625 -1.390625 1.441406 -1.40625 1.515625 -1.4375 C 1.585938 -1.46875 1.644531 -1.523438 1.6875 -1.609375 C 1.726562 -1.691406 1.75 -1.84375 1.75 -2.0625 L 1.921875 -2.0625 L 1.921875 0.03125 L 1.75 0.03125 L 1.75 -0.078125 C 1.75 -0.234375 1.71875 -0.367188 1.65625 -0.484375 C 1.625 -0.546875 1.570312 -0.59375 1.5 -0.625 C 1.4375 -0.65625 1.257812 -0.671875 0.96875 -0.671875 L -2.828125 -0.671875 C -3.085938 -0.671875 -3.25 -0.65625 -3.3125 -0.625 C -3.382812 -0.601562 -3.4375 -0.566406 -3.46875 -0.515625 C -3.507812 -0.460938 -3.53125 -0.394531 -3.53125 -0.3125 C -3.53125 -0.238281 -3.507812 -0.148438 -3.46875 -0.046875 Z M -2.90625 -1.390625 L -1.421875 -1.390625 C -1.097656 -1.390625 -0.882812 -1.398438 -0.78125 -1.421875 C -0.613281 -1.460938 -0.460938 -1.5625 -0.328125 -1.71875 C -0.203125 -1.882812 -0.140625 -2.085938 -0.140625 -2.328125 C -0.140625 -2.617188 -0.253906 -2.851562 -0.484375 -3.03125 C -0.773438 -3.269531 -1.191406 -3.390625 -1.734375 -3.390625 C -2.347656 -3.390625 -2.816406 -3.253906 -3.140625 -2.984375 C -3.367188 -2.796875 -3.484375 -2.578125 -3.484375 -2.328125 C -3.484375 -2.179688 -3.453125 -2.039062 -3.390625 -1.90625 C -3.335938 -1.800781 -3.175781 -1.628906 -2.90625 -1.390625 Z M -2.90625 -1.390625 "/>
</g>
<g id="glyph-2-6">
<path d="M -6.21875 -1.296875 C -6.21875 -1.421875 -6.171875 -1.523438 -6.078125 -1.609375 C -5.992188 -1.691406 -5.894531 -1.734375 -5.78125 -1.734375 C -5.65625 -1.734375 -5.546875 -1.691406 -5.453125 -1.609375 C -5.367188 -1.523438 -5.328125 -1.421875 -5.328125 -1.296875 C -5.328125 -1.171875 -5.367188 -1.066406 -5.453125 -0.984375 C -5.546875 -0.898438 -5.65625 -0.859375 -5.78125 -0.859375 C -5.894531 -0.859375 -5.992188 -0.898438 -6.078125 -0.984375 C -6.171875 -1.066406 -6.21875 -1.171875 -6.21875 -1.296875 Z M -4.125 -1.65625 L -0.90625 -1.65625 C -0.65625 -1.65625 -0.488281 -1.671875 -0.40625 -1.703125 C -0.320312 -1.742188 -0.257812 -1.800781 -0.21875 -1.875 C -0.175781 -1.945312 -0.15625 -2.078125 -0.15625 -2.265625 L 0 -2.265625 L 0 -0.328125 L -0.15625 -0.328125 C -0.15625 -0.515625 -0.171875 -0.640625 -0.203125 -0.703125 C -0.242188 -0.773438 -0.304688 -0.832031 -0.390625 -0.875 C -0.484375 -0.914062 -0.65625 -0.9375 -0.90625 -0.9375 L -2.453125 -0.9375 C -2.878906 -0.9375 -3.160156 -0.921875 -3.296875 -0.890625 C -3.390625 -0.867188 -3.453125 -0.835938 -3.484375 -0.796875 C -3.523438 -0.753906 -3.546875 -0.695312 -3.546875 -0.625 C -3.546875 -0.539062 -3.519531 -0.441406 -3.46875 -0.328125 L -3.640625 -0.265625 L -4.125 -1.46875 Z M -4.125 -1.65625 "/>
</g>
<g id="glyph-2-7">
<path d="M -4.125 -2.875 L -2.765625 -2.875 L -2.765625 -2.71875 C -3.191406 -2.613281 -3.476562 -2.472656 -3.625 -2.296875 C -3.78125 -2.117188 -3.859375 -1.898438 -3.859375 -1.640625 C -3.859375 -1.429688 -3.804688 -1.265625 -3.703125 -1.140625 C -3.597656 -1.015625 -3.476562 -0.953125 -3.34375 -0.953125 C -3.175781 -0.953125 -3.035156 -1 -2.921875 -1.09375 C -2.804688 -1.1875 -2.679688 -1.367188 -2.546875 -1.640625 L -2.234375 -2.28125 C -1.941406 -2.875 -1.5625 -3.171875 -1.09375 -3.171875 C -0.726562 -3.171875 -0.429688 -3.03125 -0.203125 -2.75 C 0.0117188 -2.476562 0.125 -2.171875 0.125 -1.828125 C 0.125 -1.585938 0.078125 -1.3125 -0.015625 -1 C -0.0351562 -0.894531 -0.046875 -0.8125 -0.046875 -0.75 C -0.046875 -0.6875 -0.0078125 -0.632812 0.0625 -0.59375 L 0.0625 -0.453125 L -1.375 -0.453125 L -1.375 -0.59375 C -0.957031 -0.675781 -0.644531 -0.832031 -0.4375 -1.0625 C -0.238281 -1.289062 -0.140625 -1.550781 -0.140625 -1.84375 C -0.140625 -2.039062 -0.195312 -2.203125 -0.3125 -2.328125 C -0.425781 -2.453125 -0.566406 -2.515625 -0.734375 -2.515625 C -0.941406 -2.515625 -1.113281 -2.441406 -1.25 -2.296875 C -1.382812 -2.160156 -1.554688 -1.878906 -1.765625 -1.453125 C -1.972656 -1.035156 -2.160156 -0.765625 -2.328125 -0.640625 C -2.492188 -0.503906 -2.707031 -0.4375 -2.96875 -0.4375 C -3.289062 -0.4375 -3.5625 -0.546875 -3.78125 -0.765625 C -4.007812 -0.992188 -4.125 -1.289062 -4.125 -1.65625 C -4.125 -1.8125 -4.085938 -2 -4.015625 -2.21875 C -3.972656 -2.375 -3.953125 -2.472656 -3.953125 -2.515625 C -3.953125 -2.566406 -3.960938 -2.601562 -3.984375 -2.625 C -4.003906 -2.65625 -4.050781 -2.6875 -4.125 -2.71875 Z M -4.125 -2.875 "/>
</g>
<g id="glyph-2-8">
<path d="M -4.125 -2.234375 C -4.125 -2.835938 -3.894531 -3.328125 -3.4375 -3.703125 C -3.039062 -4.015625 -2.585938 -4.171875 -2.078125 -4.171875 C -1.710938 -4.171875 -1.347656 -4.082031 -0.984375 -3.90625 C -0.617188 -3.738281 -0.34375 -3.503906 -0.15625 -3.203125 C 0.0273438 -2.898438 0.125 -2.5625 0.125 -2.1875 C 0.125 -1.582031 -0.113281 -1.101562 -0.59375 -0.75 C -1 -0.445312 -1.457031 -0.296875 -1.96875 -0.296875 C -2.332031 -0.296875 -2.695312 -0.382812 -3.0625 -0.5625 C -3.425781 -0.75 -3.691406 -0.988281 -3.859375 -1.28125 C -4.035156 -1.582031 -4.125 -1.898438 -4.125 -2.234375 Z M -3.84375 -2.109375 C -3.84375 -1.953125 -3.796875 -1.796875 -3.703125 -1.640625 C -3.609375 -1.484375 -3.445312 -1.351562 -3.21875 -1.25 C -2.988281 -1.15625 -2.691406 -1.109375 -2.328125 -1.109375 C -1.742188 -1.109375 -1.238281 -1.222656 -0.8125 -1.453125 C -0.394531 -1.691406 -0.1875 -2 -0.1875 -2.375 C -0.1875 -2.65625 -0.300781 -2.890625 -0.53125 -3.078125 C -0.769531 -3.265625 -1.171875 -3.359375 -1.734375 -3.359375 C -2.453125 -3.359375 -3.015625 -3.203125 -3.421875 -2.890625 C -3.703125 -2.679688 -3.84375 -2.421875 -3.84375 -2.109375 Z M -3.84375 -2.109375 "/>
</g>
<g id="glyph-2-9">
<path d="M -0.453125 -3.109375 C -0.242188 -2.910156 -0.09375 -2.71875 0 -2.53125 C 0.0820312 -2.34375 0.125 -2.144531 0.125 -1.9375 C 0.125 -1.5 -0.0546875 -1.113281 -0.421875 -0.78125 C -0.785156 -0.457031 -1.257812 -0.296875 -1.84375 -0.296875 C -2.414062 -0.296875 -2.9375 -0.472656 -3.40625 -0.828125 C -3.882812 -1.191406 -4.125 -1.660156 -4.125 -2.234375 C -4.125 -2.585938 -4.015625 -2.878906 -3.796875 -3.109375 L -4.53125 -3.109375 C -4.988281 -3.109375 -5.269531 -3.097656 -5.375 -3.078125 C -5.476562 -3.054688 -5.546875 -3.019531 -5.578125 -2.96875 C -5.617188 -2.925781 -5.640625 -2.867188 -5.640625 -2.796875 C -5.640625 -2.722656 -5.617188 -2.625 -5.578125 -2.5 L -5.734375 -2.4375 L -6.21875 -3.640625 L -6.21875 -3.828125 L -1.59375 -3.828125 C -1.125 -3.828125 -0.835938 -3.835938 -0.734375 -3.859375 C -0.628906 -3.878906 -0.554688 -3.914062 -0.515625 -3.96875 C -0.472656 -4.019531 -0.453125 -4.078125 -0.453125 -4.140625 C -0.453125 -4.210938 -0.476562 -4.316406 -0.53125 -4.453125 L -0.375 -4.5 L 0.125 -3.3125 L 0.125 -3.109375 Z M -0.75 -3.109375 L -2.8125 -3.109375 C -3.007812 -3.085938 -3.191406 -3.03125 -3.359375 -2.9375 C -3.523438 -2.851562 -3.648438 -2.738281 -3.734375 -2.59375 C -3.816406 -2.457031 -3.859375 -2.320312 -3.859375 -2.1875 C -3.859375 -1.925781 -3.742188 -1.695312 -3.515625 -1.5 C -3.210938 -1.226562 -2.769531 -1.09375 -2.1875 -1.09375 C -1.59375 -1.09375 -1.140625 -1.21875 -0.828125 -1.46875 C -0.515625 -1.726562 -0.359375 -2.019531 -0.359375 -2.34375 C -0.359375 -2.601562 -0.488281 -2.859375 -0.75 -3.109375 Z M -0.75 -3.109375 "/>
</g>
<g id="glyph-2-10">
<path d="M -2.5 -0.953125 C -1.90625 -0.953125 -1.4375 -1.097656 -1.09375 -1.390625 C -0.757812 -1.679688 -0.59375 -2.019531 -0.59375 -2.40625 C -0.59375 -2.675781 -0.660156 -2.90625 -0.796875 -3.09375 C -0.941406 -3.289062 -1.191406 -3.453125 -1.546875 -3.578125 L -1.453125 -3.71875 C -1.054688 -3.65625 -0.691406 -3.476562 -0.359375 -3.1875 C -0.0351562 -2.894531 0.125 -2.523438 0.125 -2.078125 C 0.125 -1.597656 -0.0625 -1.1875 -0.4375 -0.84375 C -0.8125 -0.5 -1.316406 -0.328125 -1.953125 -0.328125 C -2.640625 -0.328125 -3.171875 -0.503906 -3.546875 -0.859375 C -3.929688 -1.210938 -4.125 -1.65625 -4.125 -2.1875 C -4.125 -2.632812 -3.972656 -3 -3.671875 -3.28125 C -3.378906 -3.570312 -2.988281 -3.71875 -2.5 -3.71875 Z M -2.75 -0.953125 L -2.75 -2.8125 C -3.007812 -2.789062 -3.191406 -2.757812 -3.296875 -2.71875 C -3.453125 -2.644531 -3.578125 -2.535156 -3.671875 -2.390625 C -3.765625 -2.242188 -3.8125 -2.09375 -3.8125 -1.9375 C -3.8125 -1.695312 -3.71875 -1.476562 -3.53125 -1.28125 C -3.34375 -1.09375 -3.082031 -0.984375 -2.75 -0.953125 Z M -2.75 -0.953125 "/>
</g>
<g id="glyph-2-11">
<path d="M 0 -6.046875 L 0 -4.46875 L -2.765625 -2.46875 C -2.765625 -2.3125 -2.765625 -2.1875 -2.765625 -2.09375 C -2.765625 -2.0625 -2.765625 -2.019531 -2.765625 -1.96875 C -2.765625 -1.925781 -2.765625 -1.882812 -2.765625 -1.84375 L -1.046875 -1.84375 C -0.671875 -1.84375 -0.441406 -1.882812 -0.359375 -1.96875 C -0.222656 -2.070312 -0.15625 -2.238281 -0.15625 -2.46875 L -0.15625 -2.6875 L 0 -2.6875 L 0 -0.15625 L -0.15625 -0.15625 L -0.15625 -0.375 C -0.15625 -0.625 -0.238281 -0.800781 -0.40625 -0.90625 C -0.5 -0.96875 -0.710938 -1 -1.046875 -1 L -4.875 -1 C -5.25 -1 -5.484375 -0.960938 -5.578125 -0.890625 C -5.703125 -0.773438 -5.765625 -0.601562 -5.765625 -0.375 L -5.765625 -0.15625 L -5.921875 -0.15625 L -5.921875 -2.3125 C -5.921875 -2.9375 -5.875 -3.398438 -5.78125 -3.703125 C -5.695312 -4.003906 -5.53125 -4.257812 -5.28125 -4.46875 C -5.03125 -4.675781 -4.738281 -4.78125 -4.40625 -4.78125 C -4.039062 -4.78125 -3.722656 -4.660156 -3.453125 -4.421875 C -3.179688 -4.179688 -2.992188 -3.8125 -2.890625 -3.3125 L -1.1875 -4.546875 C -0.789062 -4.828125 -0.53125 -5.066406 -0.40625 -5.265625 C -0.28125 -5.460938 -0.195312 -5.722656 -0.15625 -6.046875 Z M -3.046875 -1.84375 C -3.046875 -1.894531 -3.046875 -1.941406 -3.046875 -1.984375 C -3.046875 -2.023438 -3.046875 -2.054688 -3.046875 -2.078125 C -3.046875 -2.648438 -3.164062 -3.078125 -3.40625 -3.359375 C -3.65625 -3.648438 -3.96875 -3.796875 -4.34375 -3.796875 C -4.71875 -3.796875 -5.019531 -3.675781 -5.25 -3.4375 C -5.476562 -3.207031 -5.59375 -2.90625 -5.59375 -2.53125 C -5.59375 -2.351562 -5.566406 -2.125 -5.515625 -1.84375 Z M -3.046875 -1.84375 "/>
</g>
<g id="glyph-2-12">
<path d="M -5.3125 -1.4375 L -4 -1.4375 L -4 -2.375 L -3.703125 -2.375 L -3.703125 -1.4375 L -1.109375 -1.4375 C -0.847656 -1.4375 -0.671875 -1.472656 -0.578125 -1.546875 C -0.484375 -1.628906 -0.4375 -1.726562 -0.4375 -1.84375 C -0.4375 -1.9375 -0.46875 -2.023438 -0.53125 -2.109375 C -0.59375 -2.203125 -0.679688 -2.273438 -0.796875 -2.328125 L -0.796875 -2.5 C -0.515625 -2.394531 -0.300781 -2.25 -0.15625 -2.0625 C -0.0078125 -1.875 0.0625 -1.679688 0.0625 -1.484375 C 0.0625 -1.359375 0.0234375 -1.226562 -0.046875 -1.09375 C -0.117188 -0.96875 -0.222656 -0.875 -0.359375 -0.8125 C -0.503906 -0.75 -0.71875 -0.71875 -1 -0.71875 L -3.703125 -0.71875 L -3.703125 -0.09375 L -3.84375 -0.09375 C -3.90625 -0.25 -4.007812 -0.410156 -4.15625 -0.578125 C -4.3125 -0.742188 -4.5 -0.894531 -4.71875 -1.03125 C -4.820312 -1.09375 -5.019531 -1.1875 -5.3125 -1.3125 Z M -5.3125 -1.4375 "/>
</g>
<g id="glyph-2-13">
<path d="M -4 -3.796875 L -1.578125 -3.796875 C -1.117188 -3.796875 -0.835938 -3.804688 -0.734375 -3.828125 C -0.628906 -3.847656 -0.554688 -3.878906 -0.515625 -3.921875 C -0.472656 -3.972656 -0.453125 -4.03125 -0.453125 -4.09375 C -0.453125 -4.1875 -0.476562 -4.289062 -0.53125 -4.40625 L -0.375 -4.46875 L 0.125 -3.265625 L 0.125 -3.0625 L -0.71875 -3.0625 C -0.351562 -2.71875 -0.117188 -2.457031 -0.015625 -2.28125 C 0.078125 -2.101562 0.125 -1.910156 0.125 -1.703125 C 0.125 -1.484375 0.0585938 -1.289062 -0.0625 -1.125 C -0.195312 -0.957031 -0.363281 -0.84375 -0.5625 -0.78125 C -0.769531 -0.71875 -1.0625 -0.6875 -1.4375 -0.6875 L -3.21875 -0.6875 C -3.414062 -0.6875 -3.550781 -0.664062 -3.625 -0.625 C -3.695312 -0.582031 -3.75 -0.519531 -3.78125 -0.4375 C -3.820312 -0.363281 -3.84375 -0.222656 -3.84375 -0.015625 L -4 -0.015625 L -4 -1.40625 L -1.328125 -1.40625 C -0.953125 -1.40625 -0.707031 -1.46875 -0.59375 -1.59375 C -0.476562 -1.726562 -0.421875 -1.890625 -0.421875 -2.078125 C -0.421875 -2.203125 -0.457031 -2.34375 -0.53125 -2.5 C -0.613281 -2.65625 -0.765625 -2.84375 -0.984375 -3.0625 L -3.25 -3.0625 C -3.476562 -3.0625 -3.628906 -3.019531 -3.703125 -2.9375 C -3.785156 -2.851562 -3.832031 -2.679688 -3.84375 -2.421875 L -4 -2.421875 Z M -4 -3.796875 "/>
</g>
<g id="glyph-2-14">
<path d="M -4.125 -1.453125 L -3.21875 -1.453125 C -3.820312 -1.785156 -4.125 -2.128906 -4.125 -2.484375 C -4.125 -2.640625 -4.070312 -2.769531 -3.96875 -2.875 C -3.875 -2.976562 -3.765625 -3.03125 -3.640625 -3.03125 C -3.523438 -3.03125 -3.425781 -2.992188 -3.34375 -2.921875 C -3.269531 -2.847656 -3.234375 -2.757812 -3.234375 -2.65625 C -3.234375 -2.550781 -3.28125 -2.4375 -3.375 -2.3125 C -3.476562 -2.1875 -3.53125 -2.09375 -3.53125 -2.03125 C -3.53125 -1.976562 -3.5 -1.921875 -3.4375 -1.859375 C -3.320312 -1.722656 -3.128906 -1.585938 -2.859375 -1.453125 L -0.9375 -1.453125 C -0.71875 -1.453125 -0.550781 -1.476562 -0.4375 -1.53125 C -0.351562 -1.570312 -0.285156 -1.640625 -0.234375 -1.734375 C -0.179688 -1.828125 -0.15625 -1.96875 -0.15625 -2.15625 L 0 -2.15625 L 0 -0.09375 L -0.15625 -0.09375 C -0.15625 -0.300781 -0.1875 -0.457031 -0.25 -0.5625 C -0.300781 -0.632812 -0.375 -0.679688 -0.46875 -0.703125 C -0.519531 -0.722656 -0.664062 -0.734375 -0.90625 -0.734375 L -2.453125 -0.734375 C -2.921875 -0.734375 -3.195312 -0.722656 -3.28125 -0.703125 C -3.375 -0.679688 -3.441406 -0.644531 -3.484375 -0.59375 C -3.523438 -0.539062 -3.546875 -0.476562 -3.546875 -0.40625 C -3.546875 -0.3125 -3.519531 -0.207031 -3.46875 -0.09375 L -3.640625 -0.0625 L -4.125 -1.265625 Z M -4.125 -1.453125 "/>
</g>
<g id="glyph-2-15">
<path d="M -3.28125 -1.453125 C -3.84375 -1.921875 -4.125 -2.367188 -4.125 -2.796875 C -4.125 -3.003906 -4.066406 -3.1875 -3.953125 -3.34375 C -3.847656 -3.507812 -3.671875 -3.640625 -3.421875 -3.734375 C -3.242188 -3.796875 -2.972656 -3.828125 -2.609375 -3.828125 L -0.90625 -3.828125 C -0.65625 -3.828125 -0.484375 -3.847656 -0.390625 -3.890625 C -0.316406 -3.921875 -0.257812 -3.972656 -0.21875 -4.046875 C -0.175781 -4.117188 -0.15625 -4.25 -0.15625 -4.4375 L 0 -4.4375 L 0 -2.453125 L -0.15625 -2.453125 L -0.15625 -2.546875 C -0.15625 -2.722656 -0.179688 -2.847656 -0.234375 -2.921875 C -0.296875 -3.003906 -0.382812 -3.0625 -0.5 -3.09375 C -0.539062 -3.101562 -0.675781 -3.109375 -0.90625 -3.109375 L -2.546875 -3.109375 C -2.910156 -3.109375 -3.171875 -3.054688 -3.328125 -2.953125 C -3.492188 -2.859375 -3.578125 -2.703125 -3.578125 -2.484375 C -3.578125 -2.140625 -3.390625 -1.796875 -3.015625 -1.453125 L -0.90625 -1.453125 C -0.632812 -1.453125 -0.46875 -1.46875 -0.40625 -1.5 C -0.320312 -1.539062 -0.257812 -1.59375 -0.21875 -1.65625 C -0.175781 -1.726562 -0.15625 -1.875 -0.15625 -2.09375 L 0 -2.09375 L 0 -0.125 L -0.15625 -0.125 L -0.15625 -0.203125 C -0.15625 -0.410156 -0.207031 -0.546875 -0.3125 -0.609375 C -0.414062 -0.679688 -0.613281 -0.71875 -0.90625 -0.71875 L -2.390625 -0.71875 C -2.867188 -0.71875 -3.160156 -0.707031 -3.265625 -0.6875 C -3.367188 -0.664062 -3.441406 -0.632812 -3.484375 -0.59375 C -3.523438 -0.550781 -3.546875 -0.488281 -3.546875 -0.40625 C -3.546875 -0.320312 -3.519531 -0.226562 -3.46875 -0.125 L -3.640625 -0.046875 L -4.125 -1.265625 L -4.125 -1.453125 Z M -3.28125 -1.453125 "/>
</g>
<g id="glyph-3-0">
<path d="M 1.625 -4.984375 L 1.625 -2.90625 L 2.59375 -2.90625 C 2.8125 -2.90625 2.96875 -2.953125 3.0625 -3.046875 C 3.164062 -3.148438 3.238281 -3.34375 3.28125 -3.625 L 3.421875 -3.625 L 3.421875 -1.84375 L 3.28125 -1.84375 C 3.269531 -2.050781 3.238281 -2.203125 3.1875 -2.296875 C 3.144531 -2.390625 3.078125 -2.460938 2.984375 -2.515625 C 2.890625 -2.566406 2.757812 -2.59375 2.59375 -2.59375 L 1.625 -2.59375 L 1.625 -0.9375 C 1.625 -0.664062 1.640625 -0.488281 1.671875 -0.40625 C 1.703125 -0.34375 1.757812 -0.285156 1.84375 -0.234375 C 1.957031 -0.171875 2.078125 -0.140625 2.203125 -0.140625 L 2.390625 -0.140625 L 2.390625 0 L 0.125 0 L 0.125 -0.140625 L 0.3125 -0.140625 C 0.53125 -0.140625 0.6875 -0.203125 0.78125 -0.328125 C 0.84375 -0.410156 0.875 -0.613281 0.875 -0.9375 L 0.875 -4.328125 C 0.875 -4.597656 0.859375 -4.773438 0.828125 -4.859375 C 0.804688 -4.921875 0.753906 -4.976562 0.671875 -5.03125 C 0.554688 -5.09375 0.4375 -5.125 0.3125 -5.125 L 0.125 -5.125 L 0.125 -5.265625 L 4.046875 -5.265625 L 4.09375 -4.109375 L 3.96875 -4.109375 C 3.894531 -4.359375 3.8125 -4.539062 3.71875 -4.65625 C 3.632812 -4.769531 3.523438 -4.851562 3.390625 -4.90625 C 3.265625 -4.957031 3.0625 -4.984375 2.78125 -4.984375 Z M 1.625 -4.984375 "/>
</g>
<g id="glyph-3-1">
<path d="M -0.109375 -5.265625 L 1.328125 -5.265625 L 4.546875 -1.3125 L 4.546875 -4.359375 C 4.546875 -4.679688 4.507812 -4.878906 4.4375 -4.953125 C 4.34375 -5.066406 4.191406 -5.125 3.984375 -5.125 L 3.796875 -5.125 L 3.796875 -5.265625 L 5.625 -5.265625 L 5.625 -5.125 L 5.4375 -5.125 C 5.21875 -5.125 5.0625 -5.054688 4.96875 -4.921875 C 4.914062 -4.835938 4.890625 -4.648438 4.890625 -4.359375 L 4.890625 0.078125 L 4.75 0.078125 L 1.28125 -4.15625 L 1.28125 -0.90625 C 1.28125 -0.582031 1.3125 -0.382812 1.375 -0.3125 C 1.476562 -0.195312 1.628906 -0.140625 1.828125 -0.140625 L 2.015625 -0.140625 L 2.015625 0 L 0.1875 0 L 0.1875 -0.140625 L 0.375 -0.140625 C 0.59375 -0.140625 0.75 -0.207031 0.84375 -0.34375 C 0.90625 -0.425781 0.9375 -0.613281 0.9375 -0.90625 L 0.9375 -4.578125 C 0.78125 -4.753906 0.660156 -4.867188 0.578125 -4.921875 C 0.503906 -4.984375 0.390625 -5.039062 0.234375 -5.09375 C 0.160156 -5.113281 0.0429688 -5.125 -0.109375 -5.125 Z M -0.109375 -5.265625 "/>
</g>
<g id="glyph-3-2">
<path d="M 4.875 -5.390625 L 5.015625 -3.71875 L 4.875 -3.71875 C 4.738281 -4.132812 4.5625 -4.445312 4.34375 -4.65625 C 4.03125 -4.957031 3.628906 -5.109375 3.140625 -5.109375 C 2.472656 -5.109375 1.960938 -4.84375 1.609375 -4.3125 C 1.316406 -3.863281 1.171875 -3.332031 1.171875 -2.71875 C 1.171875 -2.21875 1.265625 -1.757812 1.453125 -1.34375 C 1.648438 -0.925781 1.90625 -0.617188 2.21875 -0.421875 C 2.539062 -0.234375 2.867188 -0.140625 3.203125 -0.140625 C 3.390625 -0.140625 3.570312 -0.164062 3.75 -0.21875 C 3.9375 -0.269531 4.113281 -0.34375 4.28125 -0.4375 L 4.28125 -1.953125 C 4.28125 -2.222656 4.257812 -2.394531 4.21875 -2.46875 C 4.175781 -2.550781 4.113281 -2.613281 4.03125 -2.65625 C 3.945312 -2.695312 3.800781 -2.71875 3.59375 -2.71875 L 3.59375 -2.875 L 5.625 -2.875 L 5.625 -2.71875 L 5.53125 -2.71875 C 5.332031 -2.71875 5.195312 -2.65625 5.125 -2.53125 C 5.070312 -2.425781 5.046875 -2.234375 5.046875 -1.953125 L 5.046875 -0.34375 C 4.742188 -0.1875 4.445312 -0.0703125 4.15625 0 C 3.863281 0.0820312 3.539062 0.125 3.1875 0.125 C 2.175781 0.125 1.40625 -0.203125 0.875 -0.859375 C 0.476562 -1.347656 0.28125 -1.910156 0.28125 -2.546875 C 0.28125 -3.015625 0.390625 -3.460938 0.609375 -3.890625 C 0.878906 -4.390625 1.242188 -4.773438 1.703125 -5.046875 C 2.085938 -5.273438 2.539062 -5.390625 3.0625 -5.390625 C 3.257812 -5.390625 3.4375 -5.375 3.59375 -5.34375 C 3.75 -5.3125 3.96875 -5.242188 4.25 -5.140625 C 4.394531 -5.078125 4.492188 -5.046875 4.546875 -5.046875 C 4.597656 -5.046875 4.640625 -5.066406 4.671875 -5.109375 C 4.703125 -5.160156 4.722656 -5.253906 4.734375 -5.390625 Z M 4.875 -5.390625 "/>
</g>
<g id="glyph-3-3">
<path d="M 5.375 0 L 3.96875 0 L 2.1875 -2.46875 C 2.050781 -2.457031 1.941406 -2.453125 1.859375 -2.453125 C 1.828125 -2.453125 1.789062 -2.453125 1.75 -2.453125 C 1.71875 -2.453125 1.679688 -2.457031 1.640625 -2.46875 L 1.640625 -0.9375 C 1.640625 -0.601562 1.675781 -0.394531 1.75 -0.3125 C 1.84375 -0.195312 1.988281 -0.140625 2.1875 -0.140625 L 2.390625 -0.140625 L 2.390625 0 L 0.140625 0 L 0.140625 -0.140625 L 0.328125 -0.140625 C 0.554688 -0.140625 0.71875 -0.210938 0.8125 -0.359375 C 0.863281 -0.441406 0.890625 -0.632812 0.890625 -0.9375 L 0.890625 -4.328125 C 0.890625 -4.660156 0.851562 -4.867188 0.78125 -4.953125 C 0.6875 -5.066406 0.535156 -5.125 0.328125 -5.125 L 0.140625 -5.125 L 0.140625 -5.265625 L 2.046875 -5.265625 C 2.609375 -5.265625 3.019531 -5.222656 3.28125 -5.140625 C 3.550781 -5.054688 3.78125 -4.90625 3.96875 -4.6875 C 4.15625 -4.46875 4.25 -4.207031 4.25 -3.90625 C 4.25 -3.582031 4.140625 -3.300781 3.921875 -3.0625 C 3.710938 -2.820312 3.390625 -2.65625 2.953125 -2.5625 L 4.03125 -1.046875 C 4.28125 -0.703125 4.492188 -0.472656 4.671875 -0.359375 C 4.847656 -0.242188 5.082031 -0.171875 5.375 -0.140625 Z M 1.640625 -2.703125 C 1.679688 -2.703125 1.71875 -2.703125 1.75 -2.703125 C 1.789062 -2.703125 1.828125 -2.703125 1.859375 -2.703125 C 2.359375 -2.703125 2.734375 -2.8125 2.984375 -3.03125 C 3.242188 -3.25 3.375 -3.523438 3.375 -3.859375 C 3.375 -4.191406 3.269531 -4.457031 3.0625 -4.65625 C 2.851562 -4.863281 2.582031 -4.96875 2.25 -4.96875 C 2.09375 -4.96875 1.890625 -4.941406 1.640625 -4.890625 Z M 1.640625 -2.703125 "/>
</g>
<g id="glyph-3-4">
<path d="M 3.796875 -5.125 L 3.796875 -5.265625 L 5.65625 -5.265625 L 5.65625 -5.125 L 5.453125 -5.125 C 5.253906 -5.125 5.097656 -5.035156 4.984375 -4.859375 C 4.929688 -4.773438 4.90625 -4.585938 4.90625 -4.296875 L 4.90625 -2.171875 C 4.90625 -1.640625 4.851562 -1.226562 4.75 -0.9375 C 4.644531 -0.644531 4.4375 -0.394531 4.125 -0.1875 C 3.820312 0.0195312 3.40625 0.125 2.875 0.125 C 2.300781 0.125 1.863281 0.0234375 1.5625 -0.171875 C 1.269531 -0.367188 1.0625 -0.640625 0.9375 -0.984375 C 0.851562 -1.210938 0.8125 -1.644531 0.8125 -2.28125 L 0.8125 -4.328125 C 0.8125 -4.648438 0.765625 -4.863281 0.671875 -4.96875 C 0.585938 -5.070312 0.441406 -5.125 0.234375 -5.125 L 0.046875 -5.125 L 0.046875 -5.265625 L 2.3125 -5.265625 L 2.3125 -5.125 L 2.109375 -5.125 C 1.898438 -5.125 1.75 -5.054688 1.65625 -4.921875 C 1.582031 -4.828125 1.546875 -4.628906 1.546875 -4.328125 L 1.546875 -2.03125 C 1.546875 -1.832031 1.566406 -1.597656 1.609375 -1.328125 C 1.648438 -1.066406 1.71875 -0.863281 1.8125 -0.71875 C 1.914062 -0.570312 2.054688 -0.445312 2.234375 -0.34375 C 2.421875 -0.25 2.648438 -0.203125 2.921875 -0.203125 C 3.265625 -0.203125 3.570312 -0.273438 3.84375 -0.421875 C 4.113281 -0.578125 4.296875 -0.769531 4.390625 -1 C 4.492188 -1.238281 4.546875 -1.640625 4.546875 -2.203125 L 4.546875 -4.328125 C 4.546875 -4.660156 4.507812 -4.867188 4.4375 -4.953125 C 4.34375 -5.066406 4.191406 -5.125 3.984375 -5.125 Z M 3.796875 -5.125 "/>
</g>
<g id="glyph-3-5">
<path d="M 0.328125 -2.078125 L 2.328125 -2.078125 L 2.328125 -1.484375 L 0.328125 -1.484375 Z M 0.328125 -2.078125 "/>
</g>
<g id="glyph-3-6">
<path d="M 4.609375 -5.265625 L 4.65625 -4.03125 L 4.515625 -4.03125 C 4.484375 -4.25 4.441406 -4.40625 4.390625 -4.5 C 4.316406 -4.644531 4.210938 -4.753906 4.078125 -4.828125 C 3.941406 -4.898438 3.765625 -4.9375 3.546875 -4.9375 L 2.8125 -4.9375 L 2.8125 -0.90625 C 2.8125 -0.582031 2.84375 -0.382812 2.90625 -0.3125 C 3.007812 -0.195312 3.160156 -0.140625 3.359375 -0.140625 L 3.546875 -0.140625 L 3.546875 0 L 1.3125 0 L 1.3125 -0.140625 L 1.5 -0.140625 C 1.726562 -0.140625 1.890625 -0.207031 1.984375 -0.34375 C 2.035156 -0.425781 2.0625 -0.613281 2.0625 -0.90625 L 2.0625 -4.9375 L 1.421875 -4.9375 C 1.179688 -4.9375 1.007812 -4.914062 0.90625 -4.875 C 0.769531 -4.832031 0.65625 -4.738281 0.5625 -4.59375 C 0.46875 -4.457031 0.410156 -4.269531 0.390625 -4.03125 L 0.234375 -4.03125 L 0.296875 -5.265625 Z M 4.609375 -5.265625 "/>
</g>
<g id="glyph-3-7">
<path d="M 3.671875 -2.6875 C 4.035156 -2.613281 4.3125 -2.488281 4.5 -2.3125 C 4.75 -2.070312 4.875 -1.78125 4.875 -1.4375 C 4.875 -1.175781 4.789062 -0.925781 4.625 -0.6875 C 4.457031 -0.445312 4.226562 -0.269531 3.9375 -0.15625 C 3.644531 -0.0507812 3.207031 0 2.625 0 L 0.125 0 L 0.125 -0.140625 L 0.328125 -0.140625 C 0.546875 -0.140625 0.703125 -0.210938 0.796875 -0.359375 C 0.859375 -0.441406 0.890625 -0.632812 0.890625 -0.9375 L 0.890625 -4.328125 C 0.890625 -4.660156 0.851562 -4.867188 0.78125 -4.953125 C 0.675781 -5.066406 0.523438 -5.125 0.328125 -5.125 L 0.125 -5.125 L 0.125 -5.265625 L 2.40625 -5.265625 C 2.832031 -5.265625 3.171875 -5.234375 3.421875 -5.171875 C 3.816406 -5.078125 4.113281 -4.910156 4.3125 -4.671875 C 4.519531 -4.441406 4.625 -4.171875 4.625 -3.859375 C 4.625 -3.597656 4.539062 -3.363281 4.375 -3.15625 C 4.21875 -2.945312 3.984375 -2.789062 3.671875 -2.6875 Z M 1.640625 -2.890625 C 1.734375 -2.878906 1.84375 -2.867188 1.96875 -2.859375 C 2.09375 -2.847656 2.226562 -2.84375 2.375 -2.84375 C 2.75 -2.84375 3.03125 -2.882812 3.21875 -2.96875 C 3.414062 -3.050781 3.5625 -3.175781 3.65625 -3.34375 C 3.757812 -3.507812 3.8125 -3.691406 3.8125 -3.890625 C 3.8125 -4.203125 3.6875 -4.460938 3.4375 -4.671875 C 3.1875 -4.890625 2.820312 -5 2.34375 -5 C 2.082031 -5 1.847656 -4.972656 1.640625 -4.921875 Z M 1.640625 -0.375 C 1.941406 -0.3125 2.238281 -0.28125 2.53125 -0.28125 C 3 -0.28125 3.351562 -0.382812 3.59375 -0.59375 C 3.84375 -0.800781 3.96875 -1.0625 3.96875 -1.375 C 3.96875 -1.582031 3.910156 -1.78125 3.796875 -1.96875 C 3.691406 -2.15625 3.507812 -2.300781 3.25 -2.40625 C 3 -2.519531 2.691406 -2.578125 2.328125 -2.578125 C 2.160156 -2.578125 2.019531 -2.570312 1.90625 -2.5625 C 1.800781 -2.5625 1.710938 -2.554688 1.640625 -2.546875 Z M 1.640625 -0.375 "/>
</g>
<g id="glyph-3-8">
<path d="M 1.625 -2.46875 L 1.625 -0.9375 C 1.625 -0.601562 1.660156 -0.394531 1.734375 -0.3125 C 1.835938 -0.195312 1.988281 -0.140625 2.1875 -0.140625 L 2.390625 -0.140625 L 2.390625 0 L 0.125 0 L 0.125 -0.140625 L 0.328125 -0.140625 C 0.546875 -0.140625 0.707031 -0.210938 0.8125 -0.359375 C 0.863281 -0.441406 0.890625 -0.632812 0.890625 -0.9375 L 0.890625 -4.328125 C 0.890625 -4.660156 0.851562 -4.867188 0.78125 -4.953125 C 0.675781 -5.066406 0.523438 -5.125 0.328125 -5.125 L 0.125 -5.125 L 0.125 -5.265625 L 2.0625 -5.265625 C 2.53125 -5.265625 2.898438 -5.210938 3.171875 -5.109375 C 3.441406 -5.015625 3.671875 -4.851562 3.859375 -4.625 C 4.046875 -4.394531 4.140625 -4.125 4.140625 -3.8125 C 4.140625 -3.382812 4 -3.035156 3.71875 -2.765625 C 3.4375 -2.492188 3.035156 -2.359375 2.515625 -2.359375 C 2.390625 -2.359375 2.253906 -2.363281 2.109375 -2.375 C 1.960938 -2.394531 1.800781 -2.425781 1.625 -2.46875 Z M 1.625 -2.6875 C 1.769531 -2.664062 1.894531 -2.644531 2 -2.625 C 2.101562 -2.613281 2.191406 -2.609375 2.265625 -2.609375 C 2.535156 -2.609375 2.769531 -2.710938 2.96875 -2.921875 C 3.164062 -3.128906 3.265625 -3.398438 3.265625 -3.734375 C 3.265625 -3.960938 3.21875 -4.171875 3.125 -4.359375 C 3.03125 -4.554688 2.894531 -4.703125 2.71875 -4.796875 C 2.550781 -4.898438 2.359375 -4.953125 2.140625 -4.953125 C 2.003906 -4.953125 1.832031 -4.925781 1.625 -4.875 Z M 1.625 -2.6875 "/>
</g>
<g id="glyph-3-9">
<path d="M 2.46875 1.5625 L 2.46875 1.703125 C 2.082031 1.503906 1.753906 1.273438 1.484375 1.015625 C 1.117188 0.640625 0.832031 0.195312 0.625 -0.3125 C 0.425781 -0.820312 0.328125 -1.351562 0.328125 -1.90625 C 0.328125 -2.707031 0.523438 -3.4375 0.921875 -4.09375 C 1.316406 -4.757812 1.832031 -5.234375 2.46875 -5.515625 L 2.46875 -5.359375 C 2.144531 -5.179688 1.878906 -4.9375 1.671875 -4.625 C 1.472656 -4.320312 1.320312 -3.9375 1.21875 -3.46875 C 1.125 -3 1.078125 -2.507812 1.078125 -2 C 1.078125 -1.445312 1.117188 -0.945312 1.203125 -0.5 C 1.273438 -0.144531 1.359375 0.140625 1.453125 0.359375 C 1.546875 0.578125 1.671875 0.785156 1.828125 0.984375 C 1.992188 1.179688 2.207031 1.375 2.46875 1.5625 Z M 2.46875 1.5625 "/>
</g>
<g id="glyph-3-10">
<path d="M 0.9375 -4.75 L 2.21875 -5.375 L 2.34375 -5.375 L 2.34375 -0.921875 C 2.34375 -0.628906 2.351562 -0.445312 2.375 -0.375 C 2.40625 -0.300781 2.457031 -0.242188 2.53125 -0.203125 C 2.613281 -0.171875 2.769531 -0.148438 3 -0.140625 L 3 0 L 1.03125 0 L 1.03125 -0.140625 C 1.269531 -0.148438 1.425781 -0.171875 1.5 -0.203125 C 1.570312 -0.242188 1.625 -0.296875 1.65625 -0.359375 C 1.6875 -0.421875 1.703125 -0.609375 1.703125 -0.921875 L 1.703125 -3.765625 C 1.703125 -4.148438 1.6875 -4.398438 1.65625 -4.515625 C 1.644531 -4.597656 1.613281 -4.65625 1.5625 -4.6875 C 1.507812 -4.726562 1.453125 -4.75 1.390625 -4.75 C 1.296875 -4.75 1.160156 -4.707031 0.984375 -4.625 Z M 0.9375 -4.75 "/>
</g>
<g id="glyph-3-11">
<path d="M 0.171875 -5.359375 L 0.171875 -5.515625 C 0.566406 -5.328125 0.894531 -5.097656 1.15625 -4.828125 C 1.53125 -4.453125 1.816406 -4.007812 2.015625 -3.5 C 2.222656 -2.988281 2.328125 -2.460938 2.328125 -1.921875 C 2.328125 -1.109375 2.128906 -0.371094 1.734375 0.28125 C 1.335938 0.945312 0.816406 1.421875 0.171875 1.703125 L 0.171875 1.5625 C 0.492188 1.382812 0.757812 1.140625 0.96875 0.828125 C 1.175781 0.523438 1.328125 0.136719 1.421875 -0.328125 C 1.523438 -0.796875 1.578125 -1.285156 1.578125 -1.796875 C 1.578125 -2.347656 1.53125 -2.851562 1.4375 -3.3125 C 1.375 -3.664062 1.296875 -3.945312 1.203125 -4.15625 C 1.109375 -4.375 0.976562 -4.582031 0.8125 -4.78125 C 0.65625 -4.988281 0.441406 -5.179688 0.171875 -5.359375 Z M 0.171875 -5.359375 "/>
</g>
<g id="glyph-3-12">
<path d="M 4.5625 -1.453125 L 4.6875 -1.421875 L 4.234375 0 L 0.15625 0 L 0.15625 -0.140625 L 0.359375 -0.140625 C 0.578125 -0.140625 0.734375 -0.210938 0.828125 -0.359375 C 0.890625 -0.441406 0.921875 -0.632812 0.921875 -0.9375 L 0.921875 -4.328125 C 0.921875 -4.660156 0.882812 -4.867188 0.8125 -4.953125 C 0.707031 -5.066406 0.554688 -5.125 0.359375 -5.125 L 0.15625 -5.125 L 0.15625 -5.265625 L 2.546875 -5.265625 L 2.546875 -5.125 C 2.265625 -5.125 2.066406 -5.097656 1.953125 -5.046875 C 1.835938 -4.992188 1.757812 -4.925781 1.71875 -4.84375 C 1.675781 -4.757812 1.65625 -4.5625 1.65625 -4.25 L 1.65625 -0.9375 C 1.65625 -0.71875 1.675781 -0.570312 1.71875 -0.5 C 1.75 -0.4375 1.796875 -0.390625 1.859375 -0.359375 C 1.929688 -0.335938 2.132812 -0.328125 2.46875 -0.328125 L 2.859375 -0.328125 C 3.265625 -0.328125 3.546875 -0.359375 3.703125 -0.421875 C 3.867188 -0.484375 4.019531 -0.585938 4.15625 -0.734375 C 4.289062 -0.890625 4.425781 -1.128906 4.5625 -1.453125 Z M 4.5625 -1.453125 "/>
</g>
</g>
<clipPath id="clip-0">
<path clip-rule="nonzero" d="M 0 0.257812 L 193.085938 0.257812 L 193.085938 119.59375 L 0 119.59375 Z M 0 0.257812 "/>
</clipPath>
<clipPath id="clip-1">
<path clip-rule="nonzero" d="M 31 0.257812 L 187 0.257812 L 187 97 L 31 97 Z M 31 0.257812 "/>
</clipPath>
<clipPath id="clip-2">
<path clip-rule="nonzero" d="M 35 0.347656 L 37 0.347656 L 37 96.179688 L 35 96.179688 Z M 35 0.347656 "/>
</clipPath>
<clipPath id="clip-3">
<path clip-rule="nonzero" d="M 58 0.347656 L 59 0.347656 L 59 96.179688 L 58 96.179688 Z M 58 0.347656 "/>
</clipPath>
<clipPath id="clip-4">
<path clip-rule="nonzero" d="M 80 0.347656 L 82 0.347656 L 82 96.179688 L 80 96.179688 Z M 80 0.347656 "/>
</clipPath>
<clipPath id="clip-5">
<path clip-rule="nonzero" d="M 102 0.347656 L 104 0.347656 L 104 96.179688 L 102 96.179688 Z M 102 0.347656 "/>
</clipPath>
<clipPath id="clip-6">
<path clip-rule="nonzero" d="M 125 0.347656 L 126 0.347656 L 126 96.179688 L 125 96.179688 Z M 125 0.347656 "/>
</clipPath>
<clipPath id="clip-7">
<path clip-rule="nonzero" d="M 147 0.347656 L 149 0.347656 L 149 96.179688 L 147 96.179688 Z M 147 0.347656 "/>
</clipPath>
<clipPath id="clip-8">
<path clip-rule="nonzero" d="M 169 0.347656 L 171 0.347656 L 171 96.179688 L 169 96.179688 Z M 169 0.347656 "/>
</clipPath>
<clipPath id="clip-9">
<path clip-rule="nonzero" d="M 31.285156 92 L 186.34375 92 L 186.34375 94 L 31.285156 94 Z M 31.285156 92 "/>
</clipPath>
<clipPath id="clip-10">
<path clip-rule="nonzero" d="M 31.285156 74 L 186.34375 74 L 186.34375 76 L 31.285156 76 Z M 31.285156 74 "/>
</clipPath>
<clipPath id="clip-11">
<path clip-rule="nonzero" d="M 31.285156 57 L 186.34375 57 L 186.34375 58 L 31.285156 58 Z M 31.285156 57 "/>
</clipPath>
<clipPath id="clip-12">
<path clip-rule="nonzero" d="M 31.285156 39 L 186.34375 39 L 186.34375 41 L 31.285156 41 Z M 31.285156 39 "/>
</clipPath>
<clipPath id="clip-13">
<path clip-rule="nonzero" d="M 31.285156 21 L 186.34375 21 L 186.34375 23 L 31.285156 23 Z M 31.285156 21 "/>
</clipPath>
<clipPath id="clip-14">
<path clip-rule="nonzero" d="M 31.285156 3 L 186.34375 3 L 186.34375 5 L 31.285156 5 Z M 31.285156 3 "/>
</clipPath>
<clipPath id="clip-15">
<path clip-rule="nonzero" d="M 30 0.257812 L 32 0.257812 L 32 97 L 30 97 Z M 30 0.257812 "/>
</clipPath>
<clipPath id="clip-16">
<path clip-rule="nonzero" d="M 185 0.257812 L 187 0.257812 L 187 97 L 185 97 Z M 185 0.257812 "/>
</clipPath>
<clipPath id="clip-17">
<path clip-rule="nonzero" d="M 30 0.257812 L 187 0.257812 L 187 1 L 30 1 Z M 30 0.257812 "/>
</clipPath>
<clipPath id="clip-18">
<path clip-rule="nonzero" d="M 86 0.257812 L 193.085938 0.257812 L 193.085938 66 L 86 66 Z M 86 0.257812 "/>
</clipPath>
</defs>
<g clip-path="url(#clip-0)">
<path fill-rule="nonzero" fill="rgb(100%, 100%, 100%)" fill-opacity="1" d="M 0 119.59375 L 193.085938 119.59375 L 193.085938 0.257812 L 0 0.257812 Z M 0 119.59375 "/>
</g>
<g clip-path="url(#clip-1)">
<path fill-rule="nonzero" fill="rgb(100%, 100%, 100%)" fill-opacity="1" d="M 31.285156 96.179688 L 186.34375 96.179688 L 186.34375 0.347656 L 31.285156 0.347656 Z M 31.285156 96.179688 "/>
</g>
<g clip-path="url(#clip-2)">
<path fill="none" stroke-width="0.8" stroke-linecap="round" stroke-linejoin="round" stroke="rgb(79.998779%, 79.998779%, 79.998779%)" stroke-opacity="0.2" stroke-miterlimit="10" d="M 36.276247 23.529884 L 36.276247 119.836038 " transform="matrix(0.995077, 0, 0, -0.995077, -0.000000000000004385, 119.593732)"/>
</g>
<g fill="rgb(14.99939%, 14.99939%, 14.99939%)" fill-opacity="1">
<use xlink:href="#glyph-0-0" x="34.35539" y="104.597301"/>
</g>
<g clip-path="url(#clip-3)">
<path fill="none" stroke-width="0.8" stroke-linecap="round" stroke-linejoin="round" stroke="rgb(79.998779%, 79.998779%, 79.998779%)" stroke-opacity="0.2" stroke-miterlimit="10" d="M 58.761946 23.529884 L 58.761946 119.836038 " transform="matrix(0.995077, 0, 0, -0.995077, -0.000000000000004385, 119.593732)"/>
</g>
<g fill="rgb(14.99939%, 14.99939%, 14.99939%)" fill-opacity="1">
<use xlink:href="#glyph-0-1" x="54.988567" y="104.597301"/>
<use xlink:href="#glyph-0-0" x="58.471336" y="104.597301"/>
</g>
<g clip-path="url(#clip-4)">
<path fill="none" stroke-width="0.8" stroke-linecap="round" stroke-linejoin="round" stroke="rgb(79.998779%, 79.998779%, 79.998779%)" stroke-opacity="0.2" stroke-miterlimit="10" d="M 81.247645 23.529884 L 81.247645 119.836038 " transform="matrix(0.995077, 0, 0, -0.995077, -0.000000000000004385, 119.593732)"/>
</g>
<g fill="rgb(14.99939%, 14.99939%, 14.99939%)" fill-opacity="1">
<use xlink:href="#glyph-0-2" x="77.363128" y="104.597301"/>
<use xlink:href="#glyph-0-0" x="80.845897" y="104.597301"/>
</g>
<g clip-path="url(#clip-5)">
<path fill="none" stroke-width="0.8" stroke-linecap="round" stroke-linejoin="round" stroke="rgb(79.998779%, 79.998779%, 79.998779%)" stroke-opacity="0.2" stroke-miterlimit="10" d="M 103.729418 23.529884 L 103.729418 119.836038 " transform="matrix(0.995077, 0, 0, -0.995077, -0.000000000000004385, 119.593732)"/>
</g>
<g fill="rgb(14.99939%, 14.99939%, 14.99939%)" fill-opacity="1">
<use xlink:href="#glyph-0-3" x="99.73769" y="104.597301"/>
<use xlink:href="#glyph-0-0" x="103.220459" y="104.597301"/>
</g>
<g clip-path="url(#clip-6)">
<path fill="none" stroke-width="0.8" stroke-linecap="round" stroke-linejoin="round" stroke="rgb(79.998779%, 79.998779%, 79.998779%)" stroke-opacity="0.2" stroke-miterlimit="10" d="M 126.215117 23.529884 L 126.215117 119.836038 " transform="matrix(0.995077, 0, 0, -0.995077, -0.000000000000004385, 119.593732)"/>
</g>
<g fill="rgb(14.99939%, 14.99939%, 14.99939%)" fill-opacity="1">
<use xlink:href="#glyph-0-4" x="122.112251" y="104.597301"/>
<use xlink:href="#glyph-0-0" x="125.595021" y="104.597301"/>
</g>
<g clip-path="url(#clip-7)">
<path fill="none" stroke-width="0.8" stroke-linecap="round" stroke-linejoin="round" stroke="rgb(79.998779%, 79.998779%, 79.998779%)" stroke-opacity="0.2" stroke-miterlimit="10" d="M 148.700816 23.529884 L 148.700816 119.836038 " transform="matrix(0.995077, 0, 0, -0.995077, -0.000000000000004385, 119.593732)"/>
</g>
<g fill="rgb(14.99939%, 14.99939%, 14.99939%)" fill-opacity="1">
<use xlink:href="#glyph-0-5" x="142.745429" y="104.597301"/>
<use xlink:href="#glyph-0-0" x="146.228198" y="104.597301"/>
<use xlink:href="#glyph-0-0" x="149.710967" y="104.597301"/>
</g>
<g clip-path="url(#clip-8)">
<path fill="none" stroke-width="0.8" stroke-linecap="round" stroke-linejoin="round" stroke="rgb(79.998779%, 79.998779%, 79.998779%)" stroke-opacity="0.2" stroke-miterlimit="10" d="M 171.186514 23.529884 L 171.186514 119.836038 " transform="matrix(0.995077, 0, 0, -0.995077, -0.000000000000004385, 119.593732)"/>
</g>
<g fill="rgb(14.99939%, 14.99939%, 14.99939%)" fill-opacity="1">
<use xlink:href="#glyph-0-5" x="165.11999" y="104.597301"/>
<use xlink:href="#glyph-0-1" x="168.602759" y="104.597301"/>
<use xlink:href="#glyph-0-0" x="172.085529" y="104.597301"/>
</g>
<g fill="rgb(14.99939%, 14.99939%, 14.99939%)" fill-opacity="1">
<use xlink:href="#glyph-1-0" x="84.31033" y="116.289455"/>
<use xlink:href="#glyph-1-1" x="90.283777" y="116.289455"/>
<use xlink:href="#glyph-1-2" x="94.761623" y="116.289455"/>
<use xlink:href="#glyph-1-3" x="98.737951" y="116.289455"/>
<use xlink:href="#glyph-1-4" x="101.227633" y="116.289455"/>
<use xlink:href="#glyph-1-5" x="105.705479" y="116.289455"/>
<use xlink:href="#glyph-1-6" x="107.944402" y="116.289455"/>
<use xlink:href="#glyph-1-7" x="113.41633" y="116.289455"/>
<use xlink:href="#glyph-1-4" x="117.392658" y="116.289455"/>
<use xlink:href="#glyph-1-8" x="121.870504" y="116.289455"/>
<use xlink:href="#glyph-1-9" x="126.34835" y="116.289455"/>
<use xlink:href="#glyph-1-1" x="128.838032" y="116.289455"/>
</g>
<g clip-path="url(#clip-9)">
<path fill="none" stroke-width="0.8" stroke-linecap="round" stroke-linejoin="round" stroke="rgb(79.998779%, 79.998779%, 79.998779%)" stroke-opacity="0.2" stroke-miterlimit="10" d="M 31.439937 26.925507 L 187.265673 26.925507 " transform="matrix(0.995077, 0, 0, -0.995077, -0.000000000000004385, 119.593732)"/>
</g>
<g fill="rgb(14.99939%, 14.99939%, 14.99939%)" fill-opacity="1">
<use xlink:href="#glyph-0-0" x="18.997043" y="95.220181"/>
<use xlink:href="#glyph-0-6" x="22.479813" y="95.220181"/>
<use xlink:href="#glyph-0-0" x="24.221197" y="95.220181"/>
</g>
<g clip-path="url(#clip-10)">
<path fill="none" stroke-width="0.8" stroke-linecap="round" stroke-linejoin="round" stroke="rgb(79.998779%, 79.998779%, 79.998779%)" stroke-opacity="0.2" stroke-miterlimit="10" d="M 31.439937 44.700515 L 187.265673 44.700515 " transform="matrix(0.995077, 0, 0, -0.995077, -0.000000000000004385, 119.593732)"/>
</g>
<g fill="rgb(14.99939%, 14.99939%, 14.99939%)" fill-opacity="1">
<use xlink:href="#glyph-0-0" x="18.997043" y="77.529754"/>
<use xlink:href="#glyph-0-6" x="22.479813" y="77.529754"/>
<use xlink:href="#glyph-0-1" x="24.221197" y="77.529754"/>
</g>
<g clip-path="url(#clip-11)">
<path fill="none" stroke-width="0.8" stroke-linecap="round" stroke-linejoin="round" stroke="rgb(79.998779%, 79.998779%, 79.998779%)" stroke-opacity="0.2" stroke-miterlimit="10" d="M 31.439937 62.479448 L 187.265673 62.479448 " transform="matrix(0.995077, 0, 0, -0.995077, -0.000000000000004385, 119.593732)"/>
</g>
<g fill="rgb(14.99939%, 14.99939%, 14.99939%)" fill-opacity="1">
<use xlink:href="#glyph-0-0" x="18.997043" y="59.839327"/>
<use xlink:href="#glyph-0-6" x="22.479813" y="59.839327"/>
<use xlink:href="#glyph-0-2" x="24.221197" y="59.839327"/>
</g>
<g clip-path="url(#clip-12)">
<path fill="none" stroke-width="0.8" stroke-linecap="round" stroke-linejoin="round" stroke="rgb(79.998779%, 79.998779%, 79.998779%)" stroke-opacity="0.2" stroke-miterlimit="10" d="M 31.439937 80.258381 L 187.265673 80.258381 " transform="matrix(0.995077, 0, 0, -0.995077, -0.000000000000004385, 119.593732)"/>
</g>
<g fill="rgb(14.99939%, 14.99939%, 14.99939%)" fill-opacity="1">
<use xlink:href="#glyph-0-0" x="18.997043" y="42.1489"/>
<use xlink:href="#glyph-0-6" x="22.479813" y="42.1489"/>
<use xlink:href="#glyph-0-3" x="24.221197" y="42.1489"/>
</g>
<g clip-path="url(#clip-13)">
<path fill="none" stroke-width="0.8" stroke-linecap="round" stroke-linejoin="round" stroke="rgb(79.998779%, 79.998779%, 79.998779%)" stroke-opacity="0.2" stroke-miterlimit="10" d="M 31.439937 98.037315 L 187.265673 98.037315 " transform="matrix(0.995077, 0, 0, -0.995077, -0.000000000000004385, 119.593732)"/>
</g>
<g fill="rgb(14.99939%, 14.99939%, 14.99939%)" fill-opacity="1">
<use xlink:href="#glyph-0-0" x="18.997043" y="24.458473"/>
<use xlink:href="#glyph-0-6" x="22.479813" y="24.458473"/>
<use xlink:href="#glyph-0-4" x="24.221197" y="24.458473"/>
</g>
<g clip-path="url(#clip-14)">
<path fill="none" stroke-width="0.8" stroke-linecap="round" stroke-linejoin="round" stroke="rgb(79.998779%, 79.998779%, 79.998779%)" stroke-opacity="0.2" stroke-miterlimit="10" d="M 31.439937 115.812323 L 187.265673 115.812323 " transform="matrix(0.995077, 0, 0, -0.995077, -0.000000000000004385, 119.593732)"/>
</g>
<g fill="rgb(14.99939%, 14.99939%, 14.99939%)" fill-opacity="1">
<use xlink:href="#glyph-0-5" x="18.997043" y="6.768045"/>
<use xlink:href="#glyph-0-6" x="22.479813" y="6.768045"/>
<use xlink:href="#glyph-0-0" x="24.221197" y="6.768045"/>
</g>
<g fill="rgb(14.99939%, 14.99939%, 14.99939%)" fill-opacity="1">
<use xlink:href="#glyph-2-0" x="13.104322" y="87.569254"/>
<use xlink:href="#glyph-2-1" x="13.104322" y="84.587008"/>
<use xlink:href="#glyph-2-2" x="13.104322" y="78.120998"/>
<use xlink:href="#glyph-2-3" x="13.104322" y="70.159388"/>
<use xlink:href="#glyph-2-4" x="13.104322" y="67.920465"/>
<use xlink:href="#glyph-2-5" x="13.104322" y="62.448537"/>
<use xlink:href="#glyph-2-6" x="13.104322" y="57.970691"/>
<use xlink:href="#glyph-2-7" x="13.104322" y="55.481008"/>
<use xlink:href="#glyph-2-8" x="13.104322" y="51.997244"/>
<use xlink:href="#glyph-2-9" x="13.104322" y="47.519398"/>
<use xlink:href="#glyph-2-10" x="13.104322" y="43.041552"/>
<use xlink:href="#glyph-2-3" x="13.104322" y="39.065224"/>
<use xlink:href="#glyph-2-11" x="13.104322" y="36.826301"/>
<use xlink:href="#glyph-2-10" x="13.104322" y="30.852854"/>
<use xlink:href="#glyph-2-12" x="13.104322" y="26.876527"/>
<use xlink:href="#glyph-2-13" x="13.104322" y="24.386845"/>
<use xlink:href="#glyph-2-14" x="13.104322" y="19.908998"/>
<use xlink:href="#glyph-2-15" x="13.104322" y="16.926753"/>
<use xlink:href="#glyph-2-7" x="13.104322" y="12.448907"/>
</g>
<path fill-rule="nonzero" fill="rgb(89.4104%, 10.195923%, 10.980225%)" fill-opacity="0.2" stroke-width="1" stroke-linecap="butt" stroke-linejoin="round" stroke="rgb(89.4104%, 10.195923%, 10.980225%)" stroke-opacity="0.2" stroke-miterlimit="10" d="M 38.525602 115.086091 L 38.525602 115.050761 L 40.771031 27.906901 L 45.269741 28.762677 L 54.263236 29.53209 L 72.250225 30.52526 L 90.241139 31.404589 L 108.228128 32.091565 L 180.180009 34.886575 L 180.180009 40.217507 L 108.228128 35.126035 L 90.241139 34.572529 L 72.250225 32.896308 L 54.263236 31.569463 L 45.269741 29.649857 L 40.771031 28.778379 Z M 38.525602 115.086091 " transform="matrix(0.995077, 0, 0, -0.995077, -0.000000000000004385, 119.593732)"/>
<path fill-rule="nonzero" fill="rgb(21.568298%, 49.411011%, 72.155762%)" fill-opacity="0.2" stroke-width="1" stroke-linecap="butt" stroke-linejoin="round" stroke="rgb(21.568298%, 49.411011%, 72.155762%)" stroke-opacity="0.2" stroke-miterlimit="10" d="M 38.525602 115.086091 L 38.525602 115.050761 L 40.771031 115.062538 L 45.269741 115.054686 L 54.263236 71.084311 L 72.250225 29.67341 L 90.241139 31.227938 L 108.228128 32.091565 L 180.180009 35.471486 L 180.180009 39.648299 L 108.228128 35.126035 L 90.241139 34.776659 L 72.250225 32.896308 L 54.263236 114.960473 L 45.269741 115.160677 L 40.771031 115.172454 Z M 38.525602 115.086091 " transform="matrix(0.995077, 0, 0, -0.995077, -0.000000000000004385, 119.593732)"/>
<path fill-rule="nonzero" fill="rgb(30.195618%, 68.626404%, 29.019165%)" fill-opacity="0.2" stroke-width="1" stroke-linecap="butt" stroke-linejoin="round" stroke="rgb(30.195618%, 68.626404%, 29.019165%)" stroke-opacity="0.2" stroke-miterlimit="10" d="M 38.525602 115.086091 L 38.525602 115.050761 L 40.771031 115.074314 L 45.269741 115.007579 L 54.263236 40.814195 L 72.250225 32.613667 L 90.241139 31.934542 L 108.228128 32.185779 L 180.180009 34.592157 L 180.180009 37.732618 L 108.228128 55.888406 L 90.241139 36.056397 L 72.250225 61.435245 L 54.263236 114.772045 L 45.269741 115.137123 L 40.771031 115.172454 Z M 38.525602 115.086091 " transform="matrix(0.995077, 0, 0, -0.995077, -0.000000000000004385, 119.593732)"/>
<path fill-rule="nonzero" fill="rgb(59.606934%, 30.587769%, 63.920593%)" fill-opacity="0.2" stroke-width="1" stroke-linecap="butt" stroke-linejoin="round" stroke="rgb(59.606934%, 30.587769%, 63.920593%)" stroke-opacity="0.2" stroke-miterlimit="10" d="M 38.525602 115.086091 L 38.525602 115.050761 L 40.771031 115.074314 L 45.269741 115.066463 L 54.263236 114.960473 L 72.250225 114.05759 L 90.241139 50.094256 L 108.228128 33.135768 L 180.180009 35.279133 L 180.180009 40.111517 L 108.228128 44.417873 L 90.241139 115.459021 L 72.250225 115.054686 L 54.263236 115.266667 L 45.269741 115.196007 L 40.771031 115.172454 Z M 38.525602 115.086091 " transform="matrix(0.995077, 0, 0, -0.995077, -0.000000000000004385, 119.593732)"/>
<path fill="none" stroke-width="1" stroke-linecap="round" stroke-linejoin="round" stroke="rgb(89.4104%, 10.195923%, 10.980225%)" stroke-opacity="1" stroke-miterlimit="10" d="M 38.525602 115.062538 L 40.771031 28.252352 L 45.269741 29.233746 L 54.263236 30.148405 L 72.250225 31.997351 L 90.241139 31.61657 L 108.228128 33.229982 L 180.180009 38.02311 " transform="matrix(0.995077, 0, 0, -0.995077, -0.000000000000004385, 119.593732)"/>
<path fill="none" stroke-width="1" stroke-linecap="round" stroke-linejoin="round" stroke="rgb(21.568298%, 49.411011%, 72.155762%)" stroke-opacity="1" stroke-miterlimit="10" d="M 38.525602 115.062538 L 40.771031 115.137123 L 45.269741 115.125347 L 54.263236 111.761128 L 72.250225 31.757891 L 90.241139 32.39776 L 108.228128 33.135768 L 180.180009 37.453902 " transform="matrix(0.995077, 0, 0, -0.995077, -0.000000000000004385, 119.593732)"/>
<path fill="none" stroke-width="1" stroke-linecap="round" stroke-linejoin="round" stroke="rgb(30.195618%, 68.626404%, 29.019165%)" stroke-opacity="1" stroke-miterlimit="10" d="M 38.525602 115.062538 L 40.771031 115.137123 L 45.269741 115.090017 L 54.263236 93.624967 L 72.250225 41.43051 L 90.241139 33.434112 L 108.228128 35.314463 L 180.180009 35.075003 " transform="matrix(0.995077, 0, 0, -0.995077, -0.000000000000004385, 119.593732)"/>
<path fill="none" stroke-width="1" stroke-linecap="round" stroke-linejoin="round" stroke="rgb(59.606934%, 30.587769%, 63.920593%)" stroke-opacity="1" stroke-miterlimit="10" d="M 38.525602 115.062538 L 40.771031 115.137123 L 45.269741 115.1489 L 54.263236 115.054686 L 72.250225 114.579692 L 90.241139 102.170946 L 108.228128 39.962345 L 180.180009 37.642329 " transform="matrix(0.995077, 0, 0, -0.995077, -0.000000000000004385, 119.593732)"/>
<g clip-path="url(#clip-15)">
<path fill="none" stroke-width="0.6" stroke-linecap="square" stroke-linejoin="miter" stroke="rgb(14.99939%, 14.99939%, 14.99939%)" stroke-opacity="1" stroke-miterlimit="10" d="M 31.439937 23.529884 L 31.439937 119.836038 " transform="matrix(0.995077, 0, 0, -0.995077, -0.000000000000004385, 119.593732)"/>
</g>
<g clip-path="url(#clip-16)">
<path fill="none" stroke-width="0.6" stroke-linecap="square" stroke-linejoin="miter" stroke="rgb(14.99939%, 14.99939%, 14.99939%)" stroke-opacity="1" stroke-miterlimit="10" d="M 187.265673 23.529884 L 187.265673 119.836038 " transform="matrix(0.995077, 0, 0, -0.995077, -0.000000000000004385, 119.593732)"/>
</g>
<path fill="none" stroke-width="0.6" stroke-linecap="square" stroke-linejoin="miter" stroke="rgb(14.99939%, 14.99939%, 14.99939%)" stroke-opacity="1" stroke-miterlimit="10" d="M 31.439937 23.529884 L 187.265673 23.529884 " transform="matrix(0.995077, 0, 0, -0.995077, -0.000000000000004385, 119.593732)"/>
<g clip-path="url(#clip-17)">
<path fill="none" stroke-width="0.6" stroke-linecap="square" stroke-linejoin="miter" stroke="rgb(14.99939%, 14.99939%, 14.99939%)" stroke-opacity="1" stroke-miterlimit="10" d="M 31.439937 119.836038 L 187.265673 119.836038 " transform="matrix(0.995077, 0, 0, -0.995077, -0.000000000000004385, 119.593732)"/>
</g>
<path fill-rule="nonzero" fill="rgb(100%, 100%, 100%)" fill-opacity="0.9" d="M 102.167969 51.769531 L 180.769531 51.769531 C 181.832031 51.769531 182.363281 51.238281 182.363281 50.175781 L 182.363281 5.921875 C 182.363281 4.859375 181.832031 4.328125 180.769531 4.328125 L 102.167969 4.328125 C 101.105469 4.328125 100.574219 4.859375 100.574219 5.921875 L 100.574219 50.175781 C 100.574219 51.238281 101.105469 51.769531 102.167969 51.769531 Z M 102.167969 51.769531 "/>
<g clip-path="url(#clip-18)">
<path fill="none" stroke-width="1" stroke-linecap="butt" stroke-linejoin="miter" stroke="rgb(69.999695%, 69.999695%, 69.999695%)" stroke-opacity="0.9" stroke-miterlimit="10" d="M 102.673438 68.159757 L 181.663876 68.159757 C 182.731633 68.159757 183.265511 68.693635 183.265511 69.761391 L 183.265511 114.234241 C 183.265511 115.301998 182.731633 115.835876 181.663876 115.835876 L 102.673438 115.835876 C 101.605681 115.835876 101.071803 115.301998 101.071803 114.234241 L 101.071803 69.761391 C 101.071803 68.693635 101.605681 68.159757 102.673438 68.159757 Z M 102.673438 68.159757 " transform="matrix(0.995077, 0, 0, -0.995077, -0.000000000000004385, 119.593732)"/>
</g>
<path fill="none" stroke-width="1" stroke-linecap="round" stroke-linejoin="round" stroke="rgb(89.4104%, 10.195923%, 10.980225%)" stroke-opacity="1" stroke-miterlimit="10" d="M 104.275073 109.837596 L 120.271795 109.837596 " transform="matrix(0.995077, 0, 0, -0.995077, -0.000000000000004385, 119.593732)"/>
<g fill="rgb(14.99939%, 14.99939%, 14.99939%)" fill-opacity="1">
<use xlink:href="#glyph-3-0" x="126.049623" y="13.084843"/>
<use xlink:href="#glyph-3-0" x="130.475725" y="13.084843"/>
<use xlink:href="#glyph-3-1" x="134.901827" y="13.084843"/>
</g>
<path fill="none" stroke-width="1" stroke-linecap="round" stroke-linejoin="round" stroke="rgb(21.568298%, 49.411011%, 72.155762%)" stroke-opacity="1" stroke-miterlimit="10" d="M 104.275073 98.516235 L 120.271795 98.516235 " transform="matrix(0.995077, 0, 0, -0.995077, -0.000000000000004385, 119.593732)"/>
<g fill="rgb(14.99939%, 14.99939%, 14.99939%)" fill-opacity="1">
<use xlink:href="#glyph-3-2" x="126.049623" y="24.34787"/>
<use xlink:href="#glyph-3-3" x="131.797187" y="24.34787"/>
<use xlink:href="#glyph-3-4" x="137.106918" y="24.34787"/>
<use xlink:href="#glyph-3-5" x="142.854482" y="24.34787"/>
<use xlink:href="#glyph-3-6" x="145.505367" y="24.34787"/>
<use xlink:href="#glyph-3-7" x="150.369303" y="24.34787"/>
<use xlink:href="#glyph-3-8" x="155.679033" y="24.34787"/>
<use xlink:href="#glyph-3-6" x="160.105135" y="24.34787"/>
<use xlink:href="#glyph-3-6" x="164.969071" y="24.34787"/>
<use xlink:href="#glyph-3-9" x="169.833007" y="24.34787"/>
<use xlink:href="#glyph-3-10" x="172.483892" y="24.34787"/>
<use xlink:href="#glyph-3-11" x="176.4642" y="24.34787"/>
</g>
<path fill="none" stroke-width="1" stroke-linecap="round" stroke-linejoin="round" stroke="rgb(30.195618%, 68.626404%, 29.019165%)" stroke-opacity="1" stroke-miterlimit="10" d="M 104.275073 87.1988 L 120.271795 87.1988 " transform="matrix(0.995077, 0, 0, -0.995077, -0.000000000000004385, 119.593732)"/>
<g fill="rgb(14.99939%, 14.99939%, 14.99939%)" fill-opacity="1">
<use xlink:href="#glyph-3-3" x="126.049623" y="35.610897"/>
</g>
<g fill="rgb(14.99939%, 14.99939%, 14.99939%)" fill-opacity="1">
<use xlink:href="#glyph-3-6" x="130.892911" y="35.610897"/>
<use xlink:href="#glyph-3-4" x="135.756847" y="35.610897"/>
<use xlink:href="#glyph-3-5" x="141.504411" y="35.610897"/>
<use xlink:href="#glyph-3-6" x="144.155296" y="35.610897"/>
<use xlink:href="#glyph-3-7" x="149.019232" y="35.610897"/>
<use xlink:href="#glyph-3-8" x="154.328963" y="35.610897"/>
<use xlink:href="#glyph-3-6" x="158.755065" y="35.610897"/>
<use xlink:href="#glyph-3-6" x="163.619001" y="35.610897"/>
<use xlink:href="#glyph-3-9" x="168.482937" y="35.610897"/>
<use xlink:href="#glyph-3-10" x="171.133822" y="35.610897"/>
<use xlink:href="#glyph-3-11" x="175.114129" y="35.610897"/>
</g>
<path fill="none" stroke-width="1" stroke-linecap="round" stroke-linejoin="round" stroke="rgb(59.606934%, 30.587769%, 63.920593%)" stroke-opacity="1" stroke-miterlimit="10" d="M 104.275073 75.881364 L 120.271795 75.881364 " transform="matrix(0.995077, 0, 0, -0.995077, -0.000000000000004385, 119.593732)"/>
<g fill="rgb(14.99939%, 14.99939%, 14.99939%)" fill-opacity="1">
<use xlink:href="#glyph-3-3" x="126.049623" y="46.873924"/>
</g>
<g fill="rgb(14.99939%, 14.99939%, 14.99939%)" fill-opacity="1">
<use xlink:href="#glyph-3-6" x="130.892911" y="46.873924"/>
<use xlink:href="#glyph-3-4" x="135.756847" y="46.873924"/>
<use xlink:href="#glyph-3-5" x="141.504411" y="46.873924"/>
<use xlink:href="#glyph-3-3" x="144.155296" y="46.873924"/>
</g>
<g fill="rgb(14.99939%, 14.99939%, 14.99939%)" fill-opacity="1">
<use xlink:href="#glyph-3-6" x="148.998584" y="46.873924"/>
<use xlink:href="#glyph-3-3" x="153.86252" y="46.873924"/>
<use xlink:href="#glyph-3-12" x="159.172251" y="46.873924"/>
</g>
</svg>
